<?xml version="1.0" encoding="utf-8"?>
<!-- Generator: Adobe Illustrator 27.7.0, SVG Export Plug-In . SVG Version: 6.00 Build 0)  -->
<svg version="1.1" id="Layer_1" xmlns="http://www.w3.org/2000/svg" xmlns:xlink="http://www.w3.org/1999/xlink" x="0px" y="0px"
	 viewBox="0 0 400 400" style="enable-background:new 0 0 400 400;" xml:space="preserve">
<style type="text/css">
	.st0{fill:#FFFFFF;}
</style>
<g>
	<path class="st0" d="M324.08,157.41c0.03-11.25,0.08-22.5,0.09-33.76c0.02-14.2,0-28.4,0-42.59c0-0.93,0-1.86,0-2.9
		c-11.88,0-23.52,0-35.45,0c0,6.22,0,12.34,0,18.46c0,0.95,0.03,1.91-0.01,2.86c-0.11,3.24-1.94,5.19-5.15,5.2
		c-11.34,0.05-22.68,0.05-34.02,0c-3.96-0.02-5.21-1.35-5.24-5.32c-0.04-7-0.01-14.01-0.01-21.17c-11.81,0-23.46,0-35.29,0
		c0,13.11,0,26.23,0,39.54c-3.06,0-5.93,0-8.98,0c0-13.14,0-26.27,0-39.54c-11.82,0-23.46,0-35.32,0c-0.05,0.82-0.13,1.65-0.13,2.48
		c-0.01,6.23,0.02,12.47-0.02,18.7c-0.02,3.34-1.96,5.31-5.3,5.32c-11.25,0.04-22.51,0.05-33.76,0c-4.1-0.02-5.3-1.29-5.33-5.48
		c-0.04-6.15-0.01-12.29-0.01-18.44c0-0.84,0-1.67,0-2.6c-11.94,0-23.59,0-35.42,0c0,13.25,0,26.37,0,39.67c-2.93,0-5.66,0-8.4,0
		c-0.14-0.14-0.28-0.29-0.42-0.43c-0.02-14.72-0.04-29.43-0.05-44.15c0-2.49,1.6-3.56,3.74-3.99c1-0.2,2.07-0.09,3.11-0.09
		c80.94,0,161.89,0.01,242.83-0.04c3.04,0,5.67,0.39,7.5,3.06c0,60.11,0,120.21,0,180.32c-1.79,2.58-4.32,3.05-7.31,3.03
		c-15.75-0.1-31.51-0.05-47.26-0.05c-0.94,0-1.87,0-2.96,0c0-2.99,0-5.8,0-8.85c16.15,0,32.28,0,48.55,0
		c0.05-0.73,0.12-1.23,0.12-1.72c0-25.45,0-50.9,0-76.34c0-0.43-0.05-0.86-0.08-1.29c-0.14-0.14-0.28-0.29-0.42-0.43
		c-11.57,0-23.15,0-34.94,0c0,6.74,0,13.38,0,20.01c0,4.93-1.51,6.47-6.38,6.47c-10.82,0-21.63,0.01-32.45,0
		c-4.43-0.01-5.59-1.18-5.6-5.64c-0.02-8.05-0.02-16.09,0-24.14c0.01-4.31,1.34-5.63,5.66-5.63c23.62-0.01,47.24,0,70.86-0.01
		c0.95,0,1.9-0.06,2.85-0.09C323.81,157.68,323.95,157.54,324.08,157.41z M253.32,166.81c0,5.99,0,11.74,0,17.46
		c8.9,0,17.66,0,26.34,0c0-5.94,0-11.68,0-17.46C270.82,166.81,262.18,166.81,253.32,166.81z M129.18,95.65c8.89,0,17.59,0,26.37,0
		c0-5.89,0-11.64,0-17.5c-8.84,0-17.53,0-26.37,0C129.18,84.02,129.18,89.78,129.18,95.65z M253.32,78.17c0,5.87,0,11.62,0,17.41
		c8.9,0,17.66,0,26.4,0c0-5.91,0-11.59,0-17.41C270.87,78.17,262.16,78.17,253.32,78.17z"/>
	<path class="st0" d="M235.43,219.94c4.23,0,8.2-0.1,12.16,0.02c7,0.21,13.08,2.62,16.34,9.13c1.56,3.11,2.37,6.88,2.46,10.38
		c0.3,11.42,0.14,22.86,0.08,34.29c-0.01,1.66,0.41,2.85,1.63,4.04c6.31,6.16,12.51,12.43,19.01,18.91
		c-1.82,1.77-3.48,3.52-5.3,5.06c-0.42,0.35-1.71,0.34-2.09-0.03c-7.04-6.92-14.04-13.87-20.92-20.95c-0.81-0.83-1.1-2.47-1.11-3.74
		c-0.08-12.38-0.23-24.77,0.02-37.15c0.15-7.65-4.69-11.5-11.3-11.12c-3.6,0.21-7.23,0.04-11.09,0.04c0,3.77-0.05,7.3,0.05,10.83
		c0.01,0.56,0.55,1.2,1,1.65c2.07,2.09,4.19,4.13,6.09,5.98c-2.15,2.15-4.19,4.2-6.27,6.29c-5.89-5.89-12.12-12.27-18.56-18.43
		c-1.29-1.23-3.44-2.3-5.09-2.17c-1.46,0.12-3.3,1.76-4.02,3.21c-0.8,1.6-0.3,3.56,1.28,5.11c6.19,6.05,12.28,12.21,18.4,18.34
		c3.37,3.38,3.38,4.97,0.41,8.71c-6.66,8.37-7.18,18.89,0,26.98c5.27,5.93,10.99,11.46,16.55,17.13c3.58,3.65,7.23,7.22,10.68,10.65
		c-2,2.13-3.96,4.23-6.3,6.72c-4.62-4.69-9.19-9.32-14.21-14.42c0,3.79-0.01,7.01,0,10.24c0.01,3.42-1.72,5.22-5.21,5.22
		c-52.65,0.01-105.29,0.01-157.94,0c-3.77,0-5.21-1.5-5.22-5.23c-0.01-64.51-0.01-129.02,0-193.53c0-3.99,1.3-5.28,5.42-5.28
		c52.39-0.01,104.77-0.01,157.16,0c4.18,0,5.87,1.73,5.87,5.95c0,28.06,0,56.11,0,84.17C235.43,217.86,235.43,218.79,235.43,219.94z
		 M208.93,215.09c0-20.49,0-40.98,0-61.66c-7.37,0-14.36-0.03-21.36,0.06c-0.54,0.01-1.28,0.81-1.56,1.41
		c-1.86,4.05-5.88,7.51-11.12,7.46c-15.85-0.13-31.7-0.1-47.54-0.02c-5.46,0.03-9.03-2.36-11.07-7.39c-0.29-0.72-1.6-1.44-2.45-1.46
		c-6.15-0.12-12.3-0.07-18.45-0.06c-0.58,0-1.16,0.13-1.68,0.19c0,50.24,0,100.34,0,150.73c39.95,0,79.74,0,119.48,0
		c0,3.05,0,5.79,0,8.78c-0.99,0-1.85,0-2.7,0c-39.75,0-79.5,0-119.25,0c-5.58,0-6.56-1-6.56-6.67c0-51.79,0-103.58,0-155.37
		c0-0.61-0.02-1.21,0.01-1.82c0.11-2.98,1.64-4.61,4.63-4.7c3.12-0.09,6.23-0.03,9.35-0.03c5.51,0,11.02,0,16.8,0
		c0-3.04,0-5.83,0-8.74c-13.01,0-26.22,0-39.5,0c0,62.08,0,124.03,0,186.06c50.23,0,100.33,0,150.6,0c0-4.98,0.03-9.82-0.04-14.65
		c-0.01-0.58-0.45-1.23-0.85-1.71c-1.32-1.58-2.7-3.1-4.07-4.63c-4.78-5.32-6.86-11.73-7-18.7c-0.13-6.46,2.1-12.34,5.69-17.56
		c-0.09-0.25-0.1-0.35-0.15-0.41c-5.79-5.84-11.57-11.69-17.38-17.51c-4.75-4.75-4.56-14.39,1.12-19.28
		c6.11-5.26,14.25-4.12,19.62,1.06c0.86,0.83,1.78,1.59,2.87,2.55c0-32.08,0-63.64,0-95.17c-13.39,0-26.59,0-39.71,0
		c0,2.99,0,5.8,0,8.7c8.4,0,16.63-0.01,24.85,0c4.54,0,6.18,1.63,6.19,6.11c0,16.45,0,32.91,0,49.36c0,4.42-0.07,8.84,0.03,13.25
		c0.04,1.85-0.63,2.48-2.42,2.36c-1.98-0.13-3.98-0.08-5.97-0.11C209.21,215.38,209.07,215.23,208.93,215.09z M177.78,135.83
		c-17.82,0-35.4,0-53.14,0c0,4.98,0.1,9.81-0.04,14.63c-0.07,2.31,0.86,3.02,3.03,2.99c6.4-0.08,12.8-0.03,19.2-0.03
		c9.17,0,18.33-0.02,27.5,0.01c1.84,0.01,3.4-0.38,3.43-2.53C177.84,145.91,177.78,140.92,177.78,135.83z"/>
	<path class="st0" d="M315.25,140.79c0,2.65,0,5.3,0,8.19c-2.95,0-5.83,0-8.72,0c-0.15-0.14-0.29-0.28-0.44-0.42
		c0-2.67,0-5.34,0-8.22c2.93,0,5.84,0,8.74,0C314.97,140.49,315.11,140.64,315.25,140.79z"/>
	<path class="st0" d="M288.34,140.33c3.07,0,5.82,0,8.7,0c0,2.87,0,5.68,0,8.76c-2.3,0-4.62,0.14-6.9-0.09
		c-0.65-0.06-1.65-1.12-1.72-1.79C288.2,145,288.34,142.75,288.34,140.33z"/>
	<path class="st0" d="M297.06,237.34c-3.01,0-5.76,0-8.61,0c0-2.73,0-5.36,0-8.11c2.88,0,5.69,0,8.61,0
		C297.06,231.94,297.06,234.58,297.06,237.34z"/>
	<path class="st0" d="M314.69,237.37c-2.87,0-5.62,0-8.52,0c0-2.66,0-5.3,0-8.09c2.75,0,5.55,0,8.52,0
		C314.69,231.85,314.69,234.48,314.69,237.37z"/>
	<path class="st0" d="M324.08,157.41c-0.14,0.14-0.27,0.27-0.41,0.41C323.81,157.68,323.95,157.54,324.08,157.41z"/>
	<path class="st0" d="M323.67,166.85c0.14,0.14,0.28,0.29,0.42,0.43C323.96,167.14,323.82,166.99,323.67,166.85z"/>
	<path class="st0" d="M306.09,148.57c0.15,0.14,0.29,0.28,0.44,0.42C306.39,148.84,306.24,148.71,306.09,148.57z"/>
	<path class="st0" d="M315.25,140.79c-0.14-0.15-0.28-0.3-0.42-0.44C314.97,140.49,315.11,140.64,315.25,140.79z"/>
	<path class="st0" d="M75.9,117.4c0.14,0.14,0.28,0.29,0.42,0.43C76.18,117.68,76.04,117.54,75.9,117.4z"/>
	<path class="st0" d="M209.36,215.52c-0.14-0.14-0.28-0.29-0.42-0.43C209.07,215.23,209.21,215.38,209.36,215.52z"/>
	<path class="st0" d="M195.27,180.28c0,2.88,0,5.62,0,8.54c-16.19,0-32.32,0-48.63,0c0-2.77,0-5.56,0-8.54
		C162.79,180.28,178.92,180.28,195.27,180.28z"/>
	<path class="st0" d="M147.01,251.06c15.93,0,31.86,0,47.79,0c0.15,0.14,0.29,0.28,0.44,0.42c0,2.67,0,5.34,0,8.19
		c-16.15,0-32.32,0-48.67,0c0-2.73,0-5.46,0-8.19C146.71,251.33,146.86,251.2,147.01,251.06z"/>
	<path class="st0" d="M194.8,224.35c-15.94,0-31.87,0-47.81,0c-0.14-0.14-0.29-0.28-0.43-0.42c0-2.67,0-5.33,0-8.18
		c16.17,0,32.34,0,48.67,0c0,2.71,0,5.45,0,8.18C195.09,224.07,194.95,224.21,194.8,224.35z"/>
	<path class="st0" d="M146.56,277.44c0-2.97,0-5.71,0-8.59c13.27,0,26.45,0,39.79,0c0,2.84,0,5.64,0,8.59
		C173.16,277.44,159.98,277.44,146.56,277.44z"/>
	<path class="st0" d="M186.42,198.02c0,2.86,0,5.61,0,8.52c-13.22,0-26.41,0-39.78,0c0-2.74,0-5.55,0-8.52
		C159.8,198.02,172.99,198.02,186.42,198.02z"/>
	<path class="st0" d="M146.53,241.98c0-2.91,0-5.66,0-8.55c13.26,0,26.46,0,39.81,0c0,2.78,0,5.59,0,8.55
		C173.17,241.98,159.97,241.98,146.53,241.98z"/>
	<path class="st0" d="M130.42,217.18c2.08,2.02,4.06,3.94,6.17,5.99c-5.86,5.85-11.59,11.71-17.49,17.39
		c-2.38,2.29-4.73,2.18-7.16-0.05c-2.54-2.34-4.98-4.81-7.32-7.35c-0.41-0.44-0.45-1.81-0.07-2.29c4.7-5.9,4.73-5.88,10.01-0.62
		c0.31,0.3,0.56,0.66,1.52,1.82C120.97,227,125.67,222.11,130.42,217.18z"/>
	<path class="st0" d="M103.45,196.18c1.85-1.73,3.5-3.39,5.3-4.85c0.45-0.36,1.41-0.13,2.13-0.09c0.19,0.01,0.37,0.34,0.55,0.52
		c4.19,4.03,4.19,4.03,8.24-0.02c2.88-2.88,5.83-5.68,8.59-8.67c1.44-1.56,2.39-1.45,3.73,0.06c1.31,1.48,2.88,2.72,4.55,4.26
		c-3.93,3.92-7.59,7.56-11.25,11.21c-2.27,2.26-4.5,4.56-6.81,6.78c-2.01,1.93-3.83,1.96-5.77,0.06
		C109.74,202.55,106.84,199.57,103.45,196.18z"/>
	<path class="st0" d="M103.54,267.71c2.33-2.26,4.31-4.19,6.49-6.32c1.19,1.24,2.55,2.52,3.76,3.94c1.23,1.44,2.17,1.49,3.54,0.06
		c3.64-3.81,7.48-7.44,11.13-11.25c1.24-1.3,2.14-1.53,3.31-0.02c1.31,1.68,2.73,3.28,4.31,5.16c-5.42,5.35-11.36,11.26-17.38,17.1
		c-1.63,1.59-4.62,1.55-6.28-0.02C109.47,273.58,106.61,270.71,103.54,267.71z"/>
	<path class="st0" d="M146.56,223.92c0.14,0.14,0.29,0.28,0.43,0.42C146.85,224.2,146.71,224.06,146.56,223.92z"/>
	<path class="st0" d="M194.8,224.35c0.14-0.14,0.29-0.28,0.43-0.42C195.09,224.07,194.95,224.21,194.8,224.35z"/>
	<path class="st0" d="M147.01,251.06c-0.15,0.14-0.3,0.28-0.44,0.41C146.71,251.33,146.86,251.2,147.01,251.06z"/>
	<path class="st0" d="M195.24,251.47c-0.15-0.14-0.29-0.28-0.44-0.42C194.94,251.2,195.09,251.34,195.24,251.47z"/>
</g>
</svg>
