<?xml version="1.0" encoding="utf-8"?>
<!-- Generator: Adobe Illustrator 27.7.0, SVG Export Plug-In . SVG Version: 6.00 Build 0)  -->
<svg version="1.1" id="Layer_1" xmlns="http://www.w3.org/2000/svg" xmlns:xlink="http://www.w3.org/1999/xlink" x="0px" y="0px"
	 viewBox="0 0 400 400" style="enable-background:new 0 0 400 400;" xml:space="preserve">
<g>
	<g>
		<path d="M34.93,258.59c1.69-3.34,3.48-6.52,6.86-8.61c0.75-0.46,0.94-2.23,0.95-3.4c0.06-17.09,0.04-34.17,0.04-51.26
			c0.01-34.39,0.04-68.78,0-103.17c-0.01-6.5,4.78-11.63,9.72-13.21c1.79-0.57,3.75-0.79,5.64-0.81c7.09-0.09,14.19-0.06,21.28-0.03
			c3.93,0.02,5.87,1.76,5.82,5.07c-0.05,3.1-1.89,4.58-5.74,4.59c-7.09,0.01-14.19-0.03-21.28,0.02c-4.27,0.03-5.75,1.52-5.75,5.84
			c-0.02,40.3-0.01,80.6-0.01,120.9c0,0.41,0.04,0.81,0.07,1.51c3.27,0,6.36,0.11,9.44-0.02c8.06-0.34,14.76,5.87,14.87,14.73
			c0.05,3.86,0.01,7.72,0.01,11.8c3.75-1.46,7.19-3.11,10.81-4.15c13.63-3.89,26.34-1.86,37.79,6.63c2.73,2.02,5.36,3.19,8.93,3.17
			c36.54-0.15,73.08-0.09,109.62-0.09c1.17,0,2.33,0,3.97,0c0-1.34,0-2.47,0-3.6c0-49.76,0-99.52,0-149.27
			c0-6.01-1.47-7.45-7.6-7.45c-45.67,0-91.35,0-137.02,0c-1.29,0-2.59,0.04-3.87-0.08c-2.62-0.26-4.83-2.39-4.51-4.77
			c0.33-2.36,1.67-4.28,4.29-4.71c1.16-0.19,2.36-0.1,3.54-0.11c46,0,91.99,0.05,137.99-0.04c9.83-0.02,17.49,6.11,16.62,16.5
			c-0.12,1.48-0.02,2.98-0.02,4.86c1.24,0.06,2.37,0.16,3.49,0.16c15.05,0.01,30.09,0.08,45.14-0.02
			c11.34-0.07,21.26,7.19,23.07,19.5c1.6,10.92,4.19,21.69,6.28,32.53c1.79,9.31,3.57,18.62,5.22,27.95
			c0.84,4.77,4.5,7.26,7.75,10.01c4.69,3.96,8.14,8.64,8.3,14.9c0.36,14.04,0.44,28.08,0.57,42.13c0.02,2.09,0.16,3.63,2.3,4.98
			c3.95,2.49,5.21,6.86,5.45,11.18c0.26,4.65,0.13,9.42-0.68,13.99c-1,5.67-8.17,10.73-14.29,10.85c-2.79,0.05-5.57,0.01-8.57,0.01
			c-2.8,11.65-8.93,21.02-19.08,27.42c-8.19,5.17-17.29,7.68-26.92,6.68c-19.56-2.04-34.31-17.09-37.63-34.38c-1.06,0-2.2,0-3.35,0
			c-12.47,0-24.93,0.04-37.4-0.04c-2.24-0.01-4.75,0.41-6.13-2.35c-1.7-3.4-0.07-6.83,3.66-7.18c2.03-0.19,4.08-0.11,6.12-0.11
			c10.85-0.01,21.71,0,32.56-0.01c2.01,0,3.69,0.68,4.06-2.95c0.59-5.67,2.71-11.17,4.18-16.74c-40.76,0-82.27,0-123.76,0
			c1.27,3.83,2.59,7.6,3.74,11.42c0.54,1.79,1.11,3.67,1.06,5.5c-0.06,2.45,1.01,2.81,3.1,2.8c16.12-0.06,32.24-0.05,48.36,0
			c1.35,0,3.14-0.05,3.94,0.73c1.24,1.2,2.8,3.4,2.43,4.64c-0.5,1.66-2.59,2.98-4.24,4.09c-0.76,0.51-2.09,0.19-3.16,0.19
			c-16.01,0.01-32.03,0.03-48.04-0.02c-2.19-0.01-3.03,0.45-3.78,2.97c-4.49,15.25-14.64,25.52-29.78,29.92
			c-14.09,4.09-27.09,0.92-38.57-8.5c-7.18-5.89-11.65-13.35-13.92-22.19c-0.5-1.96-1.62-1.86-3.05-1.91
			c-4.28-0.14-8.57,0.53-12.73-1.6c-4.09-2.09-6.37-5.44-8.18-9.35C34.93,270.62,34.93,264.6,34.93,258.59z M53.02,247.65
			c4.68,0,9.37,0,14.2,0c0-5.93,0.09-11.49-0.04-17.05c-0.06-2.37-1.26-4.55-3.73-4.8c-3.57-0.36-7.21-0.09-10.94-0.09
			c0,7.53,0,14.7,0,21.86c0,0.16,0.01,0.33,0.01,0.49C52.69,247.93,52.86,247.79,53.02,247.65z M347.54,222.13
			c0-5.21,0.16-10.36-0.04-15.5c-0.23-5.77-4.48-9.08-8.46-12.32c-1.49-1.21-3.65-2.25-5.52-2.27c-16.44-0.18-32.88-0.3-49.31-0.02
			c-8.14,0.14-13.5-6.65-13.31-13.41c0.34-12.13,0.31-24.28,0.02-36.42c-0.19-8.38,5.62-13.62,13.5-13.54
			c9.78,0.11,19.55,0.03,29.33,0.02c2.42,0,4.84,0,7.3,0c-0.4-2.2-0.83-4.01-1.06-5.84c-1.22-9.99-6.39-13.74-15.48-13.63
			c-14.39,0.18-28.79,0.05-43.19,0.05c-1.14,0-2.29,0-3.56,0c0,46.35,0,92.29,0,138.35c2.9,0,5.69-0.22,8.43,0.06
			c3.09,0.32,5.42-0.87,7.74-2.66c11.32-8.68,24-10.32,37.49-6.76c3.72,0.98,7.23,2.78,11.08,4.3c0-1.55-0.06-2.84,0.01-4.11
			c0.38-6.68,3.93-14.67,12.31-15.35C338.95,222.77,343.06,222.47,347.54,222.13z M332.19,279.38
			c1.31-17.42-14.84-34.64-35.43-33.12c-16.45,1.21-30.06,14.78-30.24,32.41c-0.19,18.88,14.87,32.93,31.94,33.4
			C316.93,312.58,333.15,297.09,332.19,279.38z M99.45,246.33c-17.68-0.61-31.61,14.97-32.32,31.16
			c-0.85,19.41,15.46,34.19,31.78,34.64c17.89,0.49,35.21-14.75,34.07-35.18C132.1,261.22,118.68,245.76,99.45,246.33z
			 M322.85,138.38c-13.05,0-26.03,0.02-39-0.01c-2.81-0.01-3.2,1.7-3.2,3.97c0.04,11.81,0.01,23.62,0.02,35.43
			c0,4.07,0.44,4.51,4.64,4.51c9.66,0.02,19.32,0.01,28.99,0.01c5.46,0,10.92,0,16.82,0C328.34,167.57,325.64,153.18,322.85,138.38z
			 M342.83,277.29c1.91,0,4.56,0,7.21,0c3.24,0,5.21-1.73,5.33-4.9c0.11-3,0.13-6.01,0-9c-0.17-3.82-1.96-5.43-5.79-5.44
			c-4.18-0.02-8.36,0-12.03,0C339.26,264.2,340.99,270.54,342.83,277.29z M62.12,257.94c-4.22,0-8.81-0.04-13.4,0.02
			c-2.48,0.03-3.97,1.42-4.06,3.87c-0.13,3.85-0.29,7.74,0.12,11.55c0.15,1.39,1.74,3.53,2.94,3.73c3.18,0.53,6.51,0.18,8.84,0.18
			C58.5,270.52,60.26,264.39,62.12,257.94z M347.4,247.52c0-5.22,0-10.1,0-15.28c-3.32,0-6.5,0-9.68,0c-2.57,0-4.43,1.25-4.8,3.72
			c-0.56,3.8-0.69,7.66-1.01,11.56C337.44,247.52,342.32,247.52,347.4,247.52z"/>
	</g>
	<g>
		<path d="M140.45,187c-8.55,0-17.12-0.02-25.69,0.01c-2.63,0.01-4.49-1.47-4.81-3.71c-0.23-1.57,0.79-3.63,1.88-4.97
			c0.67-0.82,2.51-0.95,3.83-0.96c8.24-0.08,16.49-0.04,24.88-0.04c0-3.7,0-7.19,0-10.96c-10.56,0-21.06,0.02-31.55-0.01
			c-3.81-0.01-5.55-2.11-5.06-5.86c0.45-3.34,2.84-3.8,5.52-3.8c9.56-0.02,19.12-0.01,28.67-0.01c0.96,0,1.92,0,3.02,0
			c1.58-6.66,7.38-9.52,12-13.36c4.92-4.09,10.12-7.84,15.16-11.79c4.93-3.87,12.39-4.41,18.42,0.47
			c7.58,6.15,15.38,12.03,23.08,18.04c3.38,2.64,4.32,6.45,4.4,10.37c0.17,9.34,0.19,18.69,0.02,28.03
			c-0.15,7.99-6.32,12.8-13.1,12.73c-15.03-0.16-30.08-0.36-45.1,0.07C147.36,201.52,140.9,197.39,140.45,187z M182.65,190.87
			c0.2,0.17,0.4,0.34,0.59,0.51c5.8,0.03,11.6,0.05,17.4,0.09c2.71,0.02,4.03-1.05,3.98-4.02c-0.13-8.81,0.06-17.63-0.14-26.43
			c-0.04-1.59-0.88-3.68-2.08-4.64c-7.11-5.72-14.39-11.23-21.7-16.7c-3.22-2.41-4.56-2.07-7.74,0.46
			c-5.41,4.32-11.05,8.34-16.37,12.77c-2.24,1.87-5.79,2.92-5.83,6.66c-0.09,9.78-0.09,19.55,0.02,29.33
			c0.01,0.85,1.14,2.41,1.79,2.43c6.71,0.18,13.43,0.11,20.29,0.11c0-5.69-0.04-10.95,0.04-16.21c0.02-0.98,0.33-2.08,0.86-2.9
			c1.37-2.1,3.59-1.78,5.48-1.19c2.21,0.68,3.27,2.52,3.28,4.91C182.55,180.99,182.61,185.93,182.65,190.87z"/>
	</g>
	<g>
		<path d="M52.51,247.57c0.19-0.1,0.36-0.07,0.51,0.08c-0.17,0.14-0.33,0.27-0.5,0.41C52.52,247.9,52.52,247.74,52.51,247.57z"/>
	</g>
	<g>
		<path d="M182.65,190.87c0.2,0.17,0.4,0.34,0.59,0.51C183.05,191.22,182.85,191.04,182.65,190.87z"/>
	</g>
	<g>
		<path d="M319.29,279.25c0.71,10.44-9.24,20.29-20.45,19.86c-10.96-0.42-19.24-8.89-19.38-20.22
			c-0.12-10.09,8.36-19.95,19.87-19.71C311.13,259.43,319.82,268.32,319.29,279.25z M309.62,279.06c-0.03-6-4.27-10.19-10.26-10.15
			c-5.59,0.04-10.44,4.75-10.37,10.07c0.06,4.29,5.04,10.32,8.68,10.32C305.95,289.29,310.11,284.54,309.62,279.06z"/>
	</g>
	<g>
		<path d="M99.7,259.23c11.66-0.06,20.33,8.8,20.29,19.66c-0.04,12.37-9.55,20.12-20.3,20.21c-10.78,0.09-19.96-9.04-19.58-20.82
			C80.42,268.5,88.18,259.16,99.7,259.23z M110.37,279.35c0.04-5.84-4.45-10.04-10.24-10.55c-4.67-0.41-10.66,4.87-10.39,10.1
			c0.31,6.05,4.58,10.48,10.27,10.55C105.24,289.5,110.3,285.11,110.37,279.35z"/>
	</g>
</g>
</svg>
