<?xml version="1.0" encoding="utf-8"?>
<!-- Generator: Adobe Illustrator 27.7.0, SVG Export Plug-In . SVG Version: 6.00 Build 0)  -->
<svg version="1.1" id="Layer_1" xmlns="http://www.w3.org/2000/svg" xmlns:xlink="http://www.w3.org/1999/xlink" x="0px" y="0px"
	 viewBox="0 0 400 400" style="enable-background:new 0 0 400 400;" xml:space="preserve">
<style type="text/css">
	.st0{fill:#FFFFFF;}
</style>
<g>
	<path class="st0" d="M72.57,74.72c2.52,3.71,2.52,7.58,2.52,11.49c-0.01,75.89-0.01,151.78,0,227.66c0,1.44-0.03,2.9,0.14,4.33
		c0.5,4.4,3.86,7.41,8.06,7.31c4.09-0.09,7.42-3.04,7.66-7.33c0.28-4.88,0.14-9.79,0.18-14.68c0.06-7.28,2.83-10.02,10.16-10.02
		c51.96,0,103.93,0,155.89,0c7.49,0,10.19,2.72,10.21,10.29c0.02,4.45,0.1,8.9-0.03,13.35c-0.24,8.35-5.71,13.73-14,13.73
		c-56.53,0.02-113.05,0.02-169.58,0c-8.15,0-13.63-5.32-14.01-13.41c-0.06-1.33-0.03-2.67-0.03-4.01c0-75.78,0-151.55-0.01-227.33
		c0-1.44,0.02-2.9-0.13-4.33c-0.45-4.26-3.62-7.21-7.72-7.3c-4.21-0.08-7.76,2.91-8,7.32c-0.29,5.44-0.19,10.9-0.12,16.35
		c0.04,3.01,2.27,3.17,4.52,3.01c1.98-0.15,3.25-0.05,3.24,2.67c-0.01,2.66-1.18,2.74-3.21,2.72c-6.89-0.06-9.86-2.84-9.93-9.61
		c-0.05-4.56-0.08-9.13,0.01-13.69c0.17-8.72,5.62-14.12,14.31-14.12c56.3-0.02,112.61-0.02,168.91,0c8.75,0,14.32,5.31,14.37,14.03
		c0.1,21.03,0.01,42.06,0.07,63.09c0.01,2.13-0.59,2.88-2.83,2.91c-2.54,0.04-2.57-1.3-2.56-3.15c0.03-20.47,0.01-40.95,0.02-61.42
		c0-2.7-0.1-5.36-2.11-7.5c-1.7-1.8-3.8-2.63-6.26-2.63c-52.85,0.01-105.71,0.01-158.56,0.03C73.53,74.49,73.32,74.57,72.57,74.72z
		 M94.03,325.34c0.78,0.11,1,0.18,1.22,0.18c52.74,0.01,105.47,0.03,158.21,0c5.21,0,8.33-3.02,8.54-8.22
		c0.17-4.33,0.07-8.68,0.06-13.02c0-5.15-0.32-5.45-5.5-5.45c-51.51,0-103.03,0-154.54,0c-0.45,0-0.89,0.03-1.33-0.01
		c-2.98-0.27-4.32,1.07-4.25,4.07c0.09,3.45-0.01,6.9,0.03,10.35C96.51,317.35,96.55,321.45,94.03,325.34z"/>
	<path class="st0" d="M274.93,277.45c-17.24,0-34.48,0.02-51.71-0.01c-20.07-0.03-31.34-19.19-21.61-36.75
		c17.18-30.99,34.44-61.94,51.57-92.96c4.81-8.71,11.82-13.8,21.9-13.8s17.1,5.07,21.91,13.79c17.25,31.21,34.66,62.33,51.89,93.54
		c7.36,13.34,1.65,29.36-12.11,34.6c-3.04,1.16-6.21,1.61-9.47,1.6C309.85,277.44,292.39,277.45,274.93,277.45z M274.95,272.12
		c17.24,0,34.48,0.02,51.71-0.01c16.33-0.03,25.07-14.68,17.17-28.95c-17.21-31.1-34.54-62.14-51.77-93.23
		c-3.7-6.67-9.1-10.6-16.83-10.65c-7.87-0.04-13.37,3.89-17.14,10.69c-17.22,31.09-34.55,62.13-51.76,93.23
		c-7.88,14.25,0.89,28.88,17.23,28.91C240.69,272.14,257.82,272.12,274.95,272.12z"/>
	<path class="st0" d="M157.74,122.54c13.12,0,26.25,0.02,39.37-0.02c1.88-0.01,3.34-0.21,3.31,2.61c-0.03,2.56-1.03,2.79-3.14,2.79
		c-26.47-0.06-52.94-0.06-79.4,0c-2.12,0-3.11-0.23-3.14-2.79c-0.04-2.82,1.43-2.61,3.31-2.61
		C131.27,122.56,144.51,122.54,157.74,122.54z"/>
	<path class="st0" d="M157.22,170.62c-9.67,0-19.35-0.07-29.02,0.05c-2.25,0.03-2.76-0.7-2.75-2.82c0.01-2.04,0.55-2.62,2.62-2.62
		c19.68,0.08,39.36,0.08,59.04,0c2.13-0.01,2.55,0.68,2.59,2.65c0.04,2.18-0.6,2.81-2.79,2.79
		C177.01,170.55,167.12,170.62,157.22,170.62z"/>
	<path class="st0" d="M157.72,202.67c-9.78,0-19.57-0.04-29.35,0.04c-1.99,0.02-2.98-0.26-2.93-2.65c0.05-2.17,0.62-2.78,2.81-2.78
		c19.57,0.08,39.14,0.08,58.71,0c2.26-0.01,2.68,0.73,2.76,2.82c0.1,2.47-1.05,2.61-2.97,2.6
		C177.06,202.63,167.39,202.67,157.72,202.67z"/>
	<path class="st0" d="M157.56,101.18c9.67,0,19.35,0.05,29.02-0.04c2.09-0.02,3.19,0.18,3.15,2.78c-0.04,2.38-0.97,2.64-2.95,2.63
		c-19.46-0.06-38.91-0.05-58.37,0c-1.93,0-2.97-0.16-2.98-2.6c-0.01-2.52,0.96-2.84,3.11-2.81
		C138.21,101.24,147.88,101.18,157.56,101.18z"/>
	<path class="st0" d="M157.53,266.77c-9.78,0-19.57-0.07-29.35,0.06c-2.3,0.03-2.7-0.79-2.73-2.85c-0.02-2.09,0.63-2.59,2.65-2.58
		c19.68,0.07,39.36,0.08,59.04-0.01c2.17-0.01,2.58,0.74,2.54,2.68c-0.04,1.82-0.18,2.79-2.47,2.76
		C177.32,266.7,167.42,266.77,157.53,266.77z"/>
	<path class="st0" d="M157.68,229.38c9.78,0,19.57,0.05,29.35-0.04c2-0.02,2.7,0.46,2.66,2.57c-0.04,2.04-0.39,2.88-2.71,2.86
		c-19.57-0.1-39.14-0.08-58.71-0.01c-2.12,0.01-2.82-0.5-2.84-2.74c-0.02-2.32,0.85-2.7,2.89-2.69
		C138.11,229.43,147.9,229.38,157.68,229.38z"/>
	<path class="st0" d="M104,234.72c-2.78,0-5.56-0.14-8.32,0.04c-2.17,0.14-2.32-0.97-2.22-2.62c0.09-1.4-0.37-2.87,2.03-2.81
		c5.77,0.14,11.55,0.14,17.32,0c2.36-0.06,1.99,1.35,2.06,2.78c0.07,1.6,0.01,2.78-2.19,2.64
		C109.78,234.58,106.89,234.72,104,234.72z"/>
	<path class="st0" d="M103.99,170.62c-2.66,0-5.34-0.14-7.99,0.04c-2.11,0.15-2.67-0.62-2.58-2.63c0.08-1.73,0.05-2.88,2.41-2.81
		c5.54,0.18,11.1,0.18,16.65,0c2.36-0.08,2.34,1.07,2.41,2.81c0.09,2.01-0.46,2.77-2.58,2.63
		C109.55,170.48,106.76,170.62,103.99,170.62z"/>
	<path class="st0" d="M104.1,202.67c-2.89,0-5.78-0.11-8.66,0.04c-2.09,0.11-2.07-1.09-1.97-2.51c0.09-1.31-0.59-2.95,1.91-2.9
		c5.88,0.12,11.77,0.1,17.65,0.01c2.24-0.04,1.81,1.42,1.78,2.67c-0.02,1.21,0.55,2.79-1.73,2.72
		C110.1,202.59,107.1,202.66,104.1,202.67z"/>
	<path class="st0" d="M104.39,261.43c2.55,0,5.11,0.12,7.66-0.04c2.07-0.12,2.89,0.39,2.88,2.69c-0.01,2.24-0.73,2.78-2.85,2.73
		c-5.44-0.13-10.88-0.18-16.32,0.01c-2.48,0.09-2.26-1.24-2.33-2.88c-0.07-1.72,0.22-2.68,2.29-2.56
		C98.61,261.56,101.5,261.43,104.39,261.43z"/>
	<path class="st0" d="M275.09,266.77c-17.13,0-34.26,0.01-51.39,0c-12.53-0.01-18.63-10.3-12.56-21.26
		c17.13-30.9,34.33-61.76,51.44-92.67c2.81-5.07,6.67-8.3,12.67-8.24c5.85,0.06,9.6,3.28,12.34,8.23
		c17.11,30.91,34.31,61.77,51.44,92.67c6.07,10.95-0.04,21.26-12.56,21.27C309.35,266.78,292.22,266.77,275.09,266.77z
		 M275.19,261.43c16.91,0,33.83-0.34,50.73,0.14c9.19,0.26,12.06-7.44,8.31-14.03c-17.31-30.42-34.15-61.12-51.11-91.75
		c-1.83-3.3-3.99-5.92-8.14-5.87c-4,0.04-6.1,2.58-7.86,5.77c-17.08,30.81-34.21,61.59-51.31,92.4c-4.11,7.41-0.55,13.34,7.97,13.35
		C240.92,261.44,258.05,261.43,275.19,261.43z"/>
	<path class="st0" d="M298.47,195.71c0,1.19-1.27,2.13-2.36,2.95c-2.16,1.63-2.15,3.08-0.52,5.15c1.51,1.92,2.42,4.32,2.73,6.74
		c0.29,2.26,1.18,2.96,3.41,2.86c2.18-0.1,5.36-0.83,5.26,2.74c-0.09,3.25-3.1,2.59-5.2,2.49c-2.15-0.1-3.16,0.46-3.46,2.79
		c-0.35,2.64-1.4,5.21-3.06,7.31c-1.46,1.84-1.15,3.1,0.6,4.33c0.09,0.06,0.17,0.15,0.24,0.23c1.33,1.51,3.79,2.91,1.59,5.22
		c-2.22,2.32-3.9,0.12-5.18-1.43c-1.65-2.01-3.01-2.32-5.15-0.61c-2,1.59-4.51,2.53-7.05,2.82c-2.24,0.26-2.63,1.33-2.59,3.29
		c0.04,2.18,0.85,5.4-2.69,5.32c-3.49-0.08-2.55-3.29-2.55-5.46c0-1.81-0.27-2.85-2.4-3.12c-2.88-0.37-5.61-1.51-7.93-3.28
		c-1.6-1.22-2.52-0.95-3.85,0.41c-1.48,1.51-3.07,4.57-5.62,2.15c-2.82-2.67,0.48-4.31,2.04-5.83c1.43-1.4,1.47-2.34,0.32-3.87
		c-1.69-2.24-2.81-4.86-3.2-7.62c-0.3-2.13-1.16-2.73-3.23-2.67c-2.17,0.07-5.39,0.92-5.39-2.61c-0.01-3.53,3.21-2.68,5.38-2.62
		c2.04,0.06,2.94-0.5,3.24-2.66c0.38-2.76,1.51-5.37,3.19-7.62c1.13-1.51,1.16-2.46-0.29-3.87c-1.56-1.51-4.85-3.14-2.06-5.83
		c2.56-2.47,4.11,0.63,5.61,2.12c1.31,1.31,2.22,1.72,3.85,0.46c2.31-1.78,5.04-2.92,7.92-3.3c2.08-0.28,2.45-1.23,2.44-3.08
		c-0.01-2.16-0.96-5.43,2.51-5.48c3.78-0.06,2.66,3.36,2.73,5.61c0.05,1.65,0.25,2.66,2.22,2.92c3,0.4,5.81,1.6,8.24,3.4
		c1.48,1.1,2.45,1.01,3.57-0.39c0.76-0.95,1.65-1.85,2.65-2.52C296.2,191.93,298.43,193.12,298.47,195.71z M275.15,197.34
		c-10.29-0.03-18.72,8.34-18.75,18.62c-0.03,10.29,8.35,18.73,18.62,18.76c10.28,0.03,18.73-8.36,18.75-18.63
		C293.81,205.8,285.43,197.36,275.15,197.34z"/>
	<path class="st0" d="M275.2,218.67c-1.5-0.13-2.56-0.88-2.69-2.38c-0.15-1.67,0.83-2.77,2.48-2.86c1.68-0.09,2.69,0.98,2.69,2.64
		C277.68,217.59,276.66,218.4,275.2,218.67z"/>
	<path class="st0" d="M274.94,231.36c-1.43-0.29-2.47-1.08-2.44-2.61c0.03-1.66,1.06-2.7,2.72-2.62s2.62,1.22,2.45,2.87
		C277.52,230.47,276.47,231.26,274.94,231.36z"/>
	<path class="st0" d="M290.43,216.21c-0.37,1.55-1.28,2.61-2.96,2.39c-1.45-0.19-2.42-1.19-2.27-2.72c0.16-1.64,1.23-2.61,2.91-2.43
		C289.59,213.61,290.32,214.68,290.43,216.21z"/>
	<path class="st0" d="M265.06,215.94c-0.19,1.61-1.03,2.7-2.72,2.67c-1.49-0.02-2.5-0.97-2.53-2.48c-0.03-1.67,0.99-2.69,2.65-2.7
		C264,213.42,264.78,214.46,265.06,215.94z"/>
	<path class="st0" d="M277.74,203.52c-0.37,1.55-1.28,2.61-2.96,2.39c-1.45-0.19-2.42-1.19-2.27-2.72c0.16-1.64,1.23-2.61,2.91-2.43
		C276.9,200.92,277.64,201.99,277.74,203.52z"/>
	<path class="st0" d="M286.58,224.95c-0.02,1.56-0.8,2.5-2.39,2.56c-1.74,0.06-2.69-0.89-2.66-2.62c0.03-1.58,1-2.44,2.55-2.42
		C285.63,222.49,286.53,223.33,286.58,224.95z"/>
	<path class="st0" d="M268.67,225.01c-0.09,1.45-0.78,2.44-2.41,2.49c-1.76,0.05-2.68-0.85-2.65-2.61c0.03-1.62,1-2.41,2.53-2.41
		C267.71,222.47,268.56,223.37,268.67,225.01z"/>
	<path class="st0" d="M286.58,207.05c-0.09,1.73-1.01,2.53-2.55,2.52c-1.57,0-2.49-0.9-2.49-2.47c-0.01-1.74,0.97-2.65,2.71-2.56
		C285.86,204.63,286.58,205.6,286.58,207.05z"/>
	<path class="st0" d="M265.99,209.6c-1.46-0.14-2.39-0.91-2.38-2.52c0.01-1.77,0.99-2.62,2.73-2.53c1.62,0.09,2.36,1.1,2.3,2.63
		C268.58,208.77,267.62,209.54,265.99,209.6z"/>
</g>
</svg>
