<?xml version="1.0" encoding="utf-8"?>
<!-- Generator: Adobe Illustrator 27.7.0, SVG Export Plug-In . SVG Version: 6.00 Build 0)  -->
<svg version="1.1" id="Layer_1" xmlns="http://www.w3.org/2000/svg" xmlns:xlink="http://www.w3.org/1999/xlink" x="0px" y="0px"
	 viewBox="0 0 600 600" style="enable-background:new 0 0 600 600;" xml:space="preserve">
<style type="text/css">
	.st0{fill:#FFFFFF;}
</style>
<g>
	<path class="st0" d="M75.7,556.2c-3.4-2.8-4.3-6.4-4.3-10.7c0.1-41.8,0.1-83.7,0.1-125.5c0-8.6,2.3-10.9,10.8-10.9
		c34.3,0,68.6,0,102.9,0c8.2,0,10.6,2.4,10.7,10.6c0,2.7,0.2,5.5,0,8.2c-0.3,3.5,1.3,4.3,4.6,4.4c9.1,0.2,17.2-1.1,25.7-5.6
		c27.7-14.5,55.8-13.2,83,2.3c4,2.2,7.8,3.3,12.3,3.3c24.8-0.1,49.6,0,74.4-0.1c6.3,0,12.2,1.3,17.4,4.7c2.7,1.8,4.4,1.4,6.5-0.9
		c10.3-10.9,20.6-21.7,31-32.5c12.5-12.9,28-13.7,41.7-2.2c2.5,2.1,3.8,1.4,5.5-0.5c4.7-5.2,9.7-10,16.7-11.8
		c11.9-3.1,22.1-0.1,30,9.3c7.7,9.2,9.1,19.8,4.1,30.7c-3.7,8.1-9.8,14.7-15,21.9c-16.2,22.6-32.5,45.2-49,67.7
		c-14.7,20-34.3,30.4-59.4,30.3c-51.7-0.2-103.3-0.2-155,0c-18,0.1-34.7-4.3-50.3-13.2c-7.2-4.1-14.8-1.7-22.2-2.1
		c-1.9-0.1-2,1.8-2,3.3c0,2.9-0.2,5.8,0,8.7c0.3,4.3-0.9,7.9-4.2,10.7C153,556.2,114.4,556.2,75.7,556.2z M348.2,532.6
		c25.1,0,50.2,0,75.3,0c20.2,0,36.4-7.6,48.3-24.3c14.1-19.8,28.5-39.4,42.7-59.1c6-8.3,12.1-16.7,18-25.1c3.3-4.7,3.2-9.7,0-14.5
		c-3-4.5-7.6-5.7-12.8-4.8c-3.9,0.7-6.4,3.5-9,6.2c-22.7,23.9-45.4,47.9-68.3,71.7c-7.7,8-17.2,12-28.5,12c-24.3-0.1-48.6,0-72.9,0
		c-7.4,0-14.8,0.1-22.2-0.1c-4.6-0.1-7.8-3.8-7.7-8.2c0.1-4.2,3.2-7.4,7.7-7.8c1.4-0.1,2.9-0.1,4.3-0.1c23.2,0,46.4,0,69.5,0
		c11.5,0,18.7-5.8,18.8-15c0.1-9.3-7.2-15.2-19-15.3c-25.4,0-50.9-0.1-76.3,0.1c-5,0-9.2-1.3-13.5-4c-21.9-13.6-45.2-15.5-68-3.6
		c-10.8,5.7-21.2,8.4-32.9,7.5c-0.8-0.1-1.6,0-2.4,0c-2.7-0.2-3.7,1.2-3.6,3.8c0,20.4,0.1,40.9,0,61.3c0,3.1,1.4,3.8,4.2,3.8
		c5.8-0.1,11.6,0,17.4,0c2.3,0,4.5,0.3,6.5,1.6c16.5,10.8,34.9,14.1,54.3,13.9C301.5,532.4,324.8,532.6,348.2,532.6z M179.7,483
		c0-17.7-0.1-35.4,0.1-53.1c0-3.8-1.3-5-5-4.9c-27.5,0.1-55,0.1-82.5,0c-3.6,0-4.7,1.3-4.7,4.8c0.1,35.2,0.1,70.4,0,105.7
		c0,3.9,1.3,5,5,4.9c27.3-0.1,54.7-0.1,82,0c4.1,0,5.2-1.3,5.2-5.3C179.6,517.8,179.7,500.4,179.7,483z M426.3,474.8
		c1.6-1.2,2.4-1.6,3-2.3c17.4-18.1,34.7-36.3,52.1-54.4c1.9-1.9,1.2-3.3-0.4-4.9c-5.2-5.2-12.7-4.6-18.8,1.7
		c-11.1,11.6-22.2,23.3-33.3,35c-1.2,1.3-2.7,2.6-2.1,4.6C428.7,461,428.2,467.5,426.3,474.8z"/>
	<path class="st0" d="M327.2,61.1c63.6-1,122.2,48,130.6,115.5c7.9,63.3-31.7,124.5-93,142.3c-5.4,1.6-7.3,3.9-6.7,9.3
		c0.5,4.6,0.3,9.3,0,14c-0.3,4,1.4,5.2,5.1,4.9c2.2-0.2,4.5,0,6.8-0.1c4.5-0.2,8.9,0.1,10.9,5.1c1.9,4.9-1.1,8.1-4.3,11.3
		c-13.5,13.4-26.9,26.8-40.3,40.3c-0.8,0.8-1.6,1.6-2.4,2.4c-4.9,4.7-9,4.7-13.8-0.1c-12.8-12.7-25.5-25.5-38.3-38.2
		c-2.2-2.2-4.3-4.3-6.5-6.5c-2.7-2.6-3.5-5.8-2.1-9.3c1.4-3.5,4.2-5.1,8-5c3.7,0.1,7.4-0.1,11.1,0c2.5,0,3.5-1.1,3.5-3.5
		c-0.1-6.4-0.1-12.9,0-19.3c0.1-3.7-2.5-4-5-4.7c-27.3-7.9-49.7-23.1-67.5-45.2c-53.8-67.3-27.6-169.5,51.8-202.9
		C291.8,64.6,309.1,60.7,327.2,61.1z M352.9,363.9c-9.9-2-10.8-3.1-10.8-13.3c0-11.1,0-22.2,0-33.3c0-8.2,1.5-10,9.6-11.8
		c59.9-12.9,99.6-72.6,88.8-132.7c-10.9-60.6-68.3-104.1-132-93.8c-60,9.7-107.4,67.1-94.4,134.7c9.5,49.3,40.5,79.8,89.3,92
		c6.5,1.6,8.5,3.9,8.5,10.7c0,11.4,0,22.9,0,34.3c0,3.2,0.6,6.4-1.5,9.3c-2.2,3.1-5.6,3.2-9.8,3.4c8.6,8.7,16.6,16.6,24.5,24.6
		c1.2,1.2,2.3,1.6,3.7,0.3C336.7,380.2,344.7,372.1,352.9,363.9z"/>
	<path class="st0" d="M327.4,92.1C382,91.6,428.5,137.5,427.9,194c-0.6,55.3-45.6,99.8-101.8,99.7c-55.5-0.1-100.1-45.4-99.9-101.5
		C226.3,136.5,271.3,92,327.4,92.1z M411.6,192.8c-1.1-47.4-37.2-84.5-85.2-84.3c-47.1,0.2-83.8,37.2-83.8,84
		c-0.1,48.5,37.6,84.9,84.5,84.8C374.7,277.1,410.6,240.3,411.6,192.8z"/>
</g>
<g>
	<path class="st0" d="M327.5,176.8c-7.2,0-14.4,0-21.5,0c-3.7,0-7.4,0-11.1,0c-1.5,0-2.3-0.8-2.4-2.3c0-2.8,0-5.6,0-8.4
		c0-1.2,0.8-2,2-2.1c0.5,0,0.9,0,1.4,0c9.9,0,19.7,0,29.6,0c0.4,0,0.8,0,1.3,0c-1.1-2.3-2.8-4-5-5.3c-3-1.8-6.3-2.6-9.8-3
		c-5.6-0.7-11.2-0.4-16.8-0.4c-1.7,0-2.7-0.9-2.7-2.6c0-3.3,0-6.7,0-10c0-1.3,0.6-2.1,1.8-2.6c21.9,0,43.8,0,65.6,0
		c1.5,0.7,1.9,2,1.8,3.5c-0.1,2.3,0,4.7-0.1,7c-0.1,1.5-1,2.3-2.6,2.3c-1.8,0-3.7,0-5.5,0c-3.7,0-7.4,0-11,0c-0.3,0-0.7,0-1.2,0
		c0.3,0.5,0.5,0.9,0.8,1.3c1.9,2.7,3.1,5.7,3.8,8.8c0.2,0.9,0.6,1.1,1.4,1.1c3.8,0,7.6,0,11.5,0c2.2,0,3.1,0.9,3.1,3.2
		c0,2.2,0,4.4,0,6.6c0,1.8-1.1,3.1-3,3.1c-4.1-0.1-8.2,0-12.3,0c-0.1,0.1-0.1,0.1-0.2,0.2c-0.4,1.7-0.8,3.5-1.3,5.1
		c-1.2,3.8-3.2,7.1-5.9,10.1c-4,4.3-8.9,7.3-14.4,9c-3.1,1-6.3,1.6-9.4,2.3c1.4,1.5,2.9,3.2,4.4,4.9c2.6,2.9,5.1,5.8,7.6,8.7
		c1.9,2.2,3.9,4.4,5.8,6.6c2.1,2.5,4.2,5,6.3,7.5c2.2,2.6,4.4,5.2,6.6,7.9c1.6,1.9,3.2,3.9,4.8,5.8c0.6,0.7,0.6,1.6,0.1,2.3
		c-0.5,0.6-1.2,1.4-1.9,1.4c-5.2,0.1-10.5,0.1-15.7,0.1c-1.3,0-1.9-1.2-2.6-2c-1.8-2-3.4-4-5.1-6.1c-1.7-2.1-3.5-4.2-5.2-6.3
		c-1.4-1.6-2.8-3.2-4.2-4.8c-2.1-2.5-4.2-4.9-6.3-7.4c-1.2-1.4-2.5-2.8-3.8-4.2c-3.1-3.4-6.1-6.8-9.2-10.3c-1.3-1.4-2.6-2.8-3.9-4.3
		c-0.2-0.3-0.4-0.7-0.4-1.1c0-3.2,0-6.4-0.1-9.6c-0.1-2.3,1.4-3,3-3c3.7,0,7.4,0.1,11-0.1c5.5-0.3,10.8-1.3,15.4-4.5
		c2.9-2,5-4.7,5.9-8.3C327.6,176.9,327.5,176.8,327.5,176.8z"/>
	<path class="st0" d="M327.5,176.8c0.1,0.1,0.1,0.1,0.2,0.2C327.6,176.9,327.5,176.8,327.5,176.8z"/>
	<path class="st0" d="M346.2,176.9c0.1-0.1,0.1-0.1,0.2-0.2C346.3,176.8,346.3,176.9,346.2,176.9z"/>
</g>
</svg>
