<?xml version="1.0" encoding="utf-8"?>
<!-- Generator: Adobe Illustrator 26.3.1, SVG Export Plug-In . SVG Version: 6.00 Build 0)  -->
<svg version="1.1" id="Layer_1" xmlns="http://www.w3.org/2000/svg" xmlns:xlink="http://www.w3.org/1999/xlink" x="0px" y="0px"
	 viewBox="0 0 170.45 182.61" style="enable-background:new 0 0 170.45 182.61;" xml:space="preserve">
<path d="M123.53,153.4c-1.21,0-2.5-0.05-3.85-0.16c-6.36-0.5-13.89-2.15-21.77-4.8c-8.15-2.73-16.33-6.41-23.65-10.63
	c-8.17-4.71-15.05-9.93-20.45-15.51c-5.58-5.4-10.8-12.28-15.51-20.45c-4.22-7.32-7.9-15.5-10.63-23.65
	c-2.64-7.88-4.3-15.41-4.8-21.77c-0.55-7.09,0.35-12.35,2.69-15.6c3.33-4.65,7.37-8.15,11.69-10.13c4.64-2.13,9.51-2.47,14.08-0.98
	c3.69,1.2,6.86,5.85,9.98,14.65c2.25,6.37,3.97,13.49,5.01,18.35c0.79,3.68-1.09,7.23-3.31,9.12c-5.53,4.71-7.8,7.17-8.73,8.41
	c-0.78,1.03-0.71,2.77,0.16,4.33c4.37,7.83,9.45,13.8,16.23,20.89c7.09,6.77,13.06,11.85,20.89,16.23c1.56,0.87,3.3,0.93,4.33,0.16
	c1.24-0.93,3.7-3.2,8.41-8.73c1.89-2.22,5.44-4.1,9.12-3.31c4.86,1.04,11.98,2.75,18.35,5.01c8.8,3.11,13.46,6.28,14.65,9.98
	c1.48,4.57,1.14,9.44-0.98,14.08c-1.98,4.32-5.48,8.36-10.13,11.69C132.65,152.44,128.7,153.4,123.53,153.4z M45.62,34.45
	c-5.43,0-10.99,3.41-15.47,9.66c-0.87,1.21-2.23,4.36-1.65,11.87c0.46,5.91,2.02,12.97,4.52,20.42
	c5.57,16.63,14.82,32.28,24.75,41.86l0.07,0.07c9.58,9.92,25.23,19.17,41.86,24.75c7.45,2.5,14.51,4.06,20.42,4.52
	c7.52,0.59,10.66-0.78,11.87-1.65c7.79-5.58,11.17-12.85,9.03-19.43c-0.15-0.46-1.39-2.93-11.16-6.39
	c-6.08-2.15-12.95-3.8-17.65-4.81c-1.27-0.27-2.85,0.52-3.63,1.45c-4.05,4.76-7.18,7.98-9.31,9.59c-2.83,2.13-6.95,2.24-10.48,0.26
	c-8.37-4.68-14.65-10.02-22.08-17.12l-0.09-0.09c-7.1-7.43-12.44-13.72-17.12-22.08c-1.97-3.53-1.87-7.65,0.26-10.48
	c1.6-2.13,4.83-5.26,9.59-9.31c0.92-0.79,1.72-2.36,1.44-3.63c-1.01-4.69-2.66-11.57-4.81-17.65c-3.46-9.77-5.93-11.01-6.39-11.16
	C48.28,34.66,46.95,34.45,45.62,34.45z"/>
</svg>
