<?xml version="1.0" encoding="utf-8"?>
<!-- Generator: Adobe Illustrator 26.3.1, SVG Export Plug-In . SVG Version: 6.00 Build 0)  -->
<svg version="1.1" id="Layer_1" xmlns="http://www.w3.org/2000/svg" xmlns:xlink="http://www.w3.org/1999/xlink" x="0px" y="0px"
	 viewBox="0 0 170.45 182.61" style="enable-background:new 0 0 170.45 182.61;" xml:space="preserve">
<g>
	<path d="M58.67,82H69.3c0.57,0,1.03-0.46,1.03-1.03v-19.6c0-0.57-0.46-1.03-1.03-1.03H58.67c-0.57,0-1.03,0.46-1.03,1.03v19.6
		C57.64,81.54,58.1,82,58.67,82z"/>
	<path d="M58.67,51.8H69.3c0.57,0,1.03-0.46,1.03-1.03v-19.6c0-0.57-0.46-1.03-1.03-1.03H58.67c-0.57,0-1.03,0.46-1.03,1.03v19.6
		C57.64,51.34,58.1,51.8,58.67,51.8z"/>
	<path d="M79.91,112.12h10.63c0.57,0,1.03-0.46,1.03-1.03V91.5c0-0.57-0.46-1.03-1.03-1.03H79.91c-0.57,0-1.03,0.46-1.03,1.03v19.6
		C78.88,111.66,79.34,112.12,79.91,112.12z"/>
	<path d="M79.91,51.8h10.63c0.57,0,1.03-0.46,1.03-1.03v-19.6c0-0.57-0.46-1.03-1.03-1.03H79.91c-0.57,0-1.03,0.46-1.03,1.03v19.6
		C78.88,51.34,79.34,51.8,79.91,51.8z"/>
	<path d="M79.91,82h10.63c0.57,0,1.03-0.46,1.03-1.03v-19.6c0-0.57-0.46-1.03-1.03-1.03H79.91c-0.57,0-1.03,0.46-1.03,1.03v19.6
		C78.88,81.54,79.34,82,79.91,82z"/>
	<path d="M97.04,120.59H73.41c-1.7,0-3.08,1.38-3.08,3.08v8.1v21.62h29.79v-5.14c0,0,0,0,0,0v-24.58
		C100.12,121.97,98.74,120.59,97.04,120.59z M93.32,146.59H77.13v-14.82v-4.38h16.19V146.59z"/>
	<path d="M141.3,146.59h-9.33V23.33c0-6.58-5.36-11.94-11.94-11.94H50.42c-6.58,0-11.94,5.36-11.94,11.94v123.27h-9.33
		c-4.88,0-8.86,3.97-8.86,8.86v6.91c0,4.88,3.97,8.86,8.86,8.86H141.3c4.88,0,8.86-3.97,8.86-8.86v-6.91
		C150.16,150.57,146.19,146.59,141.3,146.59z M143.36,162.37c0,1.14-0.92,2.06-2.06,2.06H29.15c-1.14,0-2.06-0.92-2.06-2.06v-6.91
		c0-1.14,0.92-2.06,2.06-2.06h16.13V23.33c0-2.84,2.3-5.14,5.14-5.14h69.62c2.84,0,5.14,2.3,5.14,5.14V153.4h16.13
		c1.14,0,2.06,0.92,2.06,2.06V162.37z"/>
	<path d="M111.78,30.14h-10.63c-0.57,0-1.03,0.46-1.03,1.03v19.6c0,0.57,0.46,1.03,1.03,1.03h10.63c0.57,0,1.03-0.46,1.03-1.03
		v-19.6C112.81,30.6,112.35,30.14,111.78,30.14z"/>
	<path d="M111.78,60.35h-10.63c-0.57,0-1.03,0.46-1.03,1.03v19.6c0,0.57,0.46,1.03,1.03,1.03h10.63c0.57,0,1.03-0.46,1.03-1.03
		v-19.6C112.81,60.81,112.35,60.35,111.78,60.35z"/>
	<path d="M70.33,91.5c0-0.57-0.46-1.03-1.03-1.03H58.67c-0.57,0-1.03,0.46-1.03,1.03v19.6c0,0.57,0.46,1.03,1.03,1.03H69.3
		c0.57,0,1.03-0.46,1.03-1.03V91.5z"/>
	<path d="M111.78,90.47h-10.63c-0.57,0-1.03,0.46-1.03,1.03v19.6c0,0.57,0.46,1.03,1.03,1.03h10.63c0.57,0,1.03-0.46,1.03-1.03V91.5
		C112.81,90.93,112.35,90.47,111.78,90.47z"/>
</g>
</svg>
