<?xml version="1.0" encoding="utf-8"?>
<!-- Generator: Adobe Illustrator 26.3.1, SVG Export Plug-In . SVG Version: 6.00 Build 0)  -->
<svg version="1.1" id="Layer_1" xmlns="http://www.w3.org/2000/svg" xmlns:xlink="http://www.w3.org/1999/xlink" x="0px" y="0px"
	 viewBox="0 0 170.45 182.61" style="enable-background:new 0 0 170.45 182.61;" xml:space="preserve">
<path d="M138.9,43.59H31.55c-6.44,0-11.69,5.24-11.69,11.69v72.05c0,6.44,5.24,11.69,11.69,11.69H138.9
	c6.44,0,11.69-5.24,11.69-11.69V55.28C150.59,48.83,145.35,43.59,138.9,43.59z M104.41,92.07l40.97-32.92v63.03L104.41,92.07z
	 M31.55,48.8H138.9c2.71,0,5.04,1.68,6.01,4.05L88.26,98.36c-1.93,1.55-4.14,1.55-6.07,0L25.54,52.85
	C26.51,50.48,28.83,48.8,31.55,48.8z M25.07,59.15l40.97,32.92l-40.97,30.12V59.15z M138.9,133.81H31.55
	c-3.15,0-5.78-2.26-6.36-5.25L70.16,95.5c0.03-0.02,0.05-0.04,0.08-0.06l8.69,6.98c1.91,1.54,4.11,2.31,6.3,2.31s4.39-0.77,6.3-2.31
	l8.69-6.98c0.03,0.02,0.05,0.04,0.08,0.06l44.97,33.06C144.69,131.55,142.05,133.81,138.9,133.81z"/>
</svg>
