<?xml version="1.0" encoding="utf-8"?>
<!-- Generator: Adobe Illustrator 27.7.0, SVG Export Plug-In . SVG Version: 6.00 Build 0)  -->
<svg version="1.1" id="Layer_1" xmlns="http://www.w3.org/2000/svg" xmlns:xlink="http://www.w3.org/1999/xlink" x="0px" y="0px"
	 viewBox="0 0 121.87 41.19" style="enable-background:new 0 0 121.87 41.19;" xml:space="preserve">
<style type="text/css">
	.st0{fill:url(#SVGID_1_);}
	.st1{fill:url(#SVGID_00000045612433147299140970000010320674152765107892_);}
	.st2{fill:url(#SVGID_00000041277452368023240070000013547544063355698609_);}
	.st3{fill:url(#SVGID_00000052083481330538507020000002721272182468495529_);}
	.st4{fill:url(#SVGID_00000075883026904357937660000012454005361645756567_);}
	.st5{fill:url(#SVGID_00000153690136672630008840000000252384140288051125_);}
	.st6{fill:url(#SVGID_00000100353225417326056180000014024763652781368743_);}
	.st7{fill:url(#SVGID_00000086685753134489351450000010365574184273529251_);}
	.st8{fill:url(#SVGID_00000005988390004014974330000015863990455654197176_);}
	.st9{fill:url(#SVGID_00000137111208686356983440000013610949908347872386_);}
	.st10{fill:url(#SVGID_00000152231013041381408270000018033971185277530292_);}
	.st11{fill:url(#SVGID_00000000185097595787415070000000359198540795657900_);}
	.st12{fill:url(#SVGID_00000044867045245208020180000014859429178172390590_);}
	.st13{fill:url(#SVGID_00000054944485406416005100000000324169115076616112_);}
	.st14{fill:url(#SVGID_00000137099874615079729740000018389479454686185856_);}
	.st15{fill:#FFFFFF;}
	.st16{fill:#99CB52;}
	.st17{filter:url(#Adobe_OpacityMaskFilter);}
	.st18{fill:url(#SVGID_00000059296502413662598860000012664406339355025840_);}
	.st19{opacity:0.5;mask:url(#SVGID_00000122715633412966504050000002810375906517032580_);}
	.st20{fill:url(#SVGID_00000000211759910433500690000014067086666774285188_);}
	.st21{fill:url(#SVGID_00000146485746920847158470000003019689784480445322_);}
</style>
<g>
	<g>
		
			<linearGradient id="SVGID_1_" gradientUnits="userSpaceOnUse" x1="52.4617" y1="8.7089" x2="50.6975" y2="42.523" gradientTransform="matrix(1 0 -0.1594 1 3.4895 0)">
			<stop  offset="0" style="stop-color:#ACD14A"/>
			<stop  offset="0.5529" style="stop-color:#649941"/>
			<stop  offset="1" style="stop-color:#26361D"/>
		</linearGradient>
		<path class="st0" d="M51.58,27.21l-0.93,5.45h-1.76l0.93-5.45h-1.9l0.23-1.43h5.55l-0.23,1.43H51.58z"/>
		
			<linearGradient id="SVGID_00000085956092364776945450000000241592410868978839_" gradientUnits="userSpaceOnUse" x1="62.4755" y1="9.2313" x2="60.7113" y2="43.0454" gradientTransform="matrix(1 0 -0.1594 1 3.4895 0)">
			<stop  offset="0" style="stop-color:#ACD14A"/>
			<stop  offset="0.5529" style="stop-color:#649941"/>
			<stop  offset="1" style="stop-color:#26361D"/>
		</linearGradient>
		<path style="fill:url(#SVGID_00000085956092364776945450000000241592410868978839_);" d="M60.76,32.79l-1.26-3.22l0.4-0.49
			c0.15-0.01,0.31-0.04,0.47-0.09c0.16-0.05,0.3-0.12,0.43-0.21c0.13-0.09,0.25-0.2,0.34-0.33c0.09-0.13,0.15-0.28,0.18-0.45
			s0.02-0.32-0.02-0.44c-0.04-0.12-0.1-0.22-0.19-0.3s-0.19-0.13-0.32-0.17c-0.13-0.04-0.26-0.05-0.41-0.05
			c-0.11,0-0.24,0-0.41,0.01c-0.17,0.01-0.3,0.01-0.4,0.01l-0.94,5.61h-1.76l1.17-6.88c0.11-0.01,0.28-0.02,0.53-0.03
			c0.24-0.01,0.5-0.02,0.78-0.03c0.28-0.01,0.55-0.02,0.83-0.02c0.27-0.01,0.49-0.01,0.66-0.01c0.38,0,0.74,0.03,1.06,0.09
			c0.32,0.06,0.59,0.17,0.81,0.33c0.22,0.16,0.37,0.37,0.47,0.63c0.1,0.27,0.11,0.61,0.05,1.02c-0.04,0.24-0.12,0.47-0.23,0.67
			c-0.11,0.2-0.25,0.38-0.41,0.54c-0.16,0.16-0.34,0.29-0.52,0.4c-0.19,0.11-0.37,0.19-0.56,0.25c0.2,0.49,0.38,0.93,0.54,1.31
			c0.07,0.17,0.13,0.33,0.2,0.49s0.13,0.3,0.17,0.43c0.05,0.13,0.09,0.23,0.12,0.31c0.03,0.08,0.05,0.12,0.06,0.13L60.76,32.79z"/>
		
			<linearGradient id="SVGID_00000121983094360586457310000011988951105290186163_" gradientUnits="userSpaceOnUse" x1="72.4447" y1="9.7514" x2="70.6805" y2="43.5656" gradientTransform="matrix(1 0 -0.1594 1 3.4895 0)">
			<stop  offset="0" style="stop-color:#ACD14A"/>
			<stop  offset="0.5529" style="stop-color:#649941"/>
			<stop  offset="1" style="stop-color:#26361D"/>
		</linearGradient>
		<path style="fill:url(#SVGID_00000121983094360586457310000011988951105290186163_);" d="M71.19,32.79l-0.27-1.71h-2.37
			l-0.86,1.71l-1.5-0.36l3.57-6.64h2.02l1.2,6.61L71.19,32.79z M70.54,28.64c-0.03-0.15-0.05-0.32-0.07-0.49s-0.03-0.34-0.04-0.49
			c-0.01-0.18-0.02-0.36-0.02-0.54c-0.07,0.18-0.14,0.37-0.21,0.55c-0.06,0.15-0.12,0.32-0.2,0.49c-0.07,0.17-0.15,0.34-0.23,0.48
			l-0.56,1.1h1.48L70.54,28.64z"/>
		
			<linearGradient id="SVGID_00000124154871267334778130000016649029149743332502_" gradientUnits="userSpaceOnUse" x1="83.0577" y1="10.3052" x2="81.2935" y2="44.1193" gradientTransform="matrix(1 0 -0.1594 1 3.4895 0)">
			<stop  offset="0" style="stop-color:#ACD14A"/>
			<stop  offset="0.5529" style="stop-color:#649941"/>
			<stop  offset="1" style="stop-color:#26361D"/>
		</linearGradient>
		<path style="fill:url(#SVGID_00000124154871267334778130000016649029149743332502_);" d="M84.26,29.19
			c-0.07,0.43-0.19,0.81-0.36,1.16c-0.17,0.34-0.38,0.64-0.62,0.9c-0.24,0.26-0.51,0.49-0.81,0.67c-0.29,0.19-0.6,0.34-0.91,0.46
			c-0.31,0.12-0.62,0.21-0.93,0.26c-0.31,0.06-0.6,0.08-0.87,0.08c-0.36,0-0.7,0-1.01-0.01c-0.32-0.01-0.6-0.01-0.84-0.02
			c-0.24-0.01-0.5-0.02-0.79-0.03l1.17-6.88c0.25-0.01,0.52-0.02,0.82-0.03c0.25-0.01,0.53-0.02,0.85-0.03
			c0.32-0.01,0.65-0.01,0.99-0.01c0.75,0,1.35,0.1,1.82,0.29c0.47,0.19,0.83,0.45,1.07,0.77c0.25,0.32,0.4,0.69,0.45,1.11
			C84.34,28.31,84.33,28.74,84.26,29.19z M82.3,29.19c0.06-0.4,0.06-0.74,0-1c-0.06-0.26-0.18-0.47-0.35-0.62
			c-0.17-0.15-0.38-0.26-0.64-0.32c-0.26-0.06-0.56-0.09-0.89-0.09c-0.09,0-0.18,0-0.25,0c-0.07,0-0.14,0-0.19,0h-0.18l-0.71,4.13
			l0.55,0.01c0.36,0.01,0.68-0.04,0.98-0.13c0.3-0.1,0.56-0.23,0.79-0.42c0.23-0.18,0.42-0.4,0.57-0.67
			C82.15,29.81,82.25,29.52,82.3,29.19z"/>
		
			<linearGradient id="SVGID_00000096761610675455783970000001579250076413709468_" gradientUnits="userSpaceOnUse" x1="93.3832" y1="10.8439" x2="91.619" y2="44.658" gradientTransform="matrix(1 0 -0.1594 1 3.4895 0)">
			<stop  offset="0" style="stop-color:#ACD14A"/>
			<stop  offset="0.5529" style="stop-color:#649941"/>
			<stop  offset="1" style="stop-color:#26361D"/>
		</linearGradient>
		<path style="fill:url(#SVGID_00000096761610675455783970000001579250076413709468_);" d="M88.28,32.67l1.17-6.88h4.7l-0.23,1.43
			h-2.95l-0.21,1.28h2.93l-0.23,1.42h-2.94l-0.23,1.33h3l-0.23,1.43H88.28z"/>
		
			<linearGradient id="SVGID_00000009566401326367665340000017401624268688493985_" gradientUnits="userSpaceOnUse" x1="103.4771" y1="11.3705" x2="101.7129" y2="45.1846" gradientTransform="matrix(1 0 -0.1594 1 3.4895 0)">
			<stop  offset="0" style="stop-color:#ACD14A"/>
			<stop  offset="0.5529" style="stop-color:#649941"/>
			<stop  offset="1" style="stop-color:#26361D"/>
		</linearGradient>
		<path style="fill:url(#SVGID_00000009566401326367665340000017401624268688493985_);" d="M101.88,32.79l-1.26-3.22l0.4-0.49
			c0.15-0.01,0.31-0.04,0.47-0.09s0.3-0.12,0.43-0.21c0.13-0.09,0.25-0.2,0.34-0.33c0.09-0.13,0.15-0.28,0.18-0.45
			c0.03-0.17,0.02-0.32-0.02-0.44c-0.04-0.12-0.1-0.22-0.19-0.3c-0.09-0.08-0.19-0.13-0.32-0.17c-0.13-0.04-0.26-0.05-0.41-0.05
			c-0.11,0-0.24,0-0.41,0.01c-0.17,0.01-0.3,0.01-0.4,0.01l-0.94,5.61h-1.76l1.17-6.88c0.11-0.01,0.28-0.02,0.53-0.03
			c0.24-0.01,0.5-0.02,0.78-0.03c0.28-0.01,0.55-0.02,0.83-0.02c0.27-0.01,0.49-0.01,0.66-0.01c0.38,0,0.74,0.03,1.06,0.09
			s0.59,0.17,0.81,0.33c0.22,0.16,0.37,0.37,0.47,0.63c0.1,0.27,0.11,0.61,0.05,1.02c-0.04,0.24-0.12,0.47-0.23,0.67
			c-0.11,0.2-0.25,0.38-0.41,0.54s-0.34,0.29-0.52,0.4c-0.19,0.11-0.37,0.19-0.56,0.25c0.2,0.49,0.38,0.93,0.54,1.31
			c0.07,0.17,0.13,0.33,0.2,0.49s0.13,0.3,0.17,0.43c0.05,0.13,0.09,0.23,0.12,0.31c0.03,0.08,0.05,0.12,0.06,0.13L101.88,32.79z"/>
		
			<linearGradient id="SVGID_00000160889169914951081550000017263784487131024548_" gradientUnits="userSpaceOnUse" x1="113.0502" y1="11.87" x2="111.286" y2="45.6841" gradientTransform="matrix(1 0 -0.1594 1 3.4895 0)">
			<stop  offset="0" style="stop-color:#ACD14A"/>
			<stop  offset="0.5529" style="stop-color:#649941"/>
			<stop  offset="1" style="stop-color:#26361D"/>
		</linearGradient>
		<path style="fill:url(#SVGID_00000160889169914951081550000017263784487131024548_);" d="M113.27,30.56
			c-0.07,0.42-0.2,0.77-0.4,1.05c-0.2,0.28-0.45,0.51-0.74,0.69c-0.29,0.17-0.61,0.3-0.97,0.37c-0.36,0.07-0.72,0.11-1.1,0.11
			c-0.51,0-0.93-0.04-1.26-0.12c-0.33-0.08-0.63-0.18-0.91-0.28l0.69-1.29c0.16,0.07,0.38,0.14,0.65,0.2
			c0.27,0.06,0.59,0.09,0.95,0.09c0.14,0,0.28-0.01,0.41-0.03c0.14-0.02,0.26-0.06,0.37-0.11c0.11-0.05,0.21-0.13,0.29-0.22
			c0.08-0.1,0.13-0.22,0.16-0.36c0.03-0.18-0.03-0.33-0.17-0.42c-0.14-0.1-0.32-0.18-0.54-0.25c-0.22-0.07-0.47-0.15-0.73-0.23
			c-0.26-0.08-0.5-0.2-0.71-0.35c-0.21-0.15-0.37-0.36-0.49-0.62c-0.11-0.26-0.14-0.61-0.07-1.05c0.06-0.36,0.19-0.67,0.4-0.93
			c0.21-0.26,0.45-0.47,0.74-0.63c0.29-0.16,0.6-0.29,0.94-0.37c0.34-0.08,0.66-0.12,0.98-0.12c0.38,0,0.75,0.03,1.13,0.1
			c0.38,0.07,0.71,0.16,0.99,0.27l-0.69,1.29c-0.14-0.05-0.28-0.09-0.44-0.13c-0.13-0.03-0.28-0.06-0.45-0.09
			c-0.17-0.03-0.35-0.04-0.54-0.04c-0.77,0-1.18,0.21-1.25,0.62c-0.03,0.19,0.03,0.34,0.17,0.44c0.14,0.1,0.33,0.19,0.55,0.26
			c0.22,0.07,0.47,0.15,0.73,0.23c0.26,0.08,0.5,0.19,0.71,0.34s0.38,0.35,0.49,0.6C113.31,29.81,113.33,30.15,113.27,30.56z"/>
	</g>
	<g>
		
			<linearGradient id="SVGID_00000130610197476338545310000011132284002517142146_" gradientUnits="userSpaceOnUse" x1="62.8188" y1="9.2492" x2="61.0546" y2="43.0633" gradientTransform="matrix(1 0 -0.1594 1 3.4895 0)">
			<stop  offset="0" style="stop-color:#ACD14A"/>
			<stop  offset="0.5529" style="stop-color:#649941"/>
			<stop  offset="1" style="stop-color:#26361D"/>
		</linearGradient>
		<path style="fill:url(#SVGID_00000130610197476338545310000011132284002517142146_);" d="M60.97,22.33l1.86-11.7h2.8l-1.86,11.7
			H60.97z"/>
		
			<linearGradient id="SVGID_00000078723367072261809570000010372571563145289622_" gradientUnits="userSpaceOnUse" x1="70.5505" y1="9.6526" x2="68.7863" y2="43.4667" gradientTransform="matrix(1 0 -0.1594 1 3.4895 0)">
			<stop  offset="0" style="stop-color:#ACD14A"/>
			<stop  offset="0.5529" style="stop-color:#649941"/>
			<stop  offset="1" style="stop-color:#26361D"/>
		</linearGradient>
		<path style="fill:url(#SVGID_00000078723367072261809570000010372571563145289622_);" d="M70.18,22.57
			c-1.45,0-2.75-0.38-3.91-1.13l0.4-2.49c1.24,0.92,2.47,1.37,3.67,1.37c0.56,0,0.98-0.11,1.27-0.34c0.29-0.22,0.46-0.49,0.51-0.8
			c0.06-0.37-0.08-0.7-0.42-0.99c-0.34-0.29-0.76-0.56-1.26-0.8c-0.51-0.24-1.01-0.51-1.52-0.8c-0.5-0.29-0.91-0.69-1.21-1.19
			c-0.3-0.51-0.4-1.1-0.29-1.78c0.16-0.97,0.69-1.75,1.59-2.34c0.91-0.59,1.96-0.88,3.18-0.88c1.16,0,2.14,0.23,2.94,0.69
			l-0.35,2.19c-0.91-0.55-1.85-0.82-2.82-0.82c-0.45,0-0.85,0.09-1.2,0.27c-0.36,0.18-0.56,0.44-0.62,0.77
			c-0.05,0.29,0.05,0.56,0.28,0.8c0.23,0.24,0.54,0.44,0.92,0.61c0.38,0.17,0.79,0.37,1.23,0.62c0.44,0.25,0.84,0.51,1.2,0.78
			c0.36,0.27,0.64,0.65,0.84,1.13c0.2,0.48,0.25,1.02,0.15,1.64c-0.17,1.09-0.69,1.95-1.56,2.57
			C72.33,22.26,71.32,22.57,70.18,22.57z"/>
		
			<linearGradient id="SVGID_00000064349340334516757350000000417614256823618739_" gradientUnits="userSpaceOnUse" x1="81.6314" y1="10.2308" x2="79.8672" y2="44.0449" gradientTransform="matrix(1 0 -0.1594 1 3.4895 0)">
			<stop  offset="0" style="stop-color:#ACD14A"/>
			<stop  offset="0.5529" style="stop-color:#649941"/>
			<stop  offset="1" style="stop-color:#26361D"/>
		</linearGradient>
		<path style="fill:url(#SVGID_00000064349340334516757350000000417614256823618739_);" d="M85.26,10.63h2.8l-1.86,11.7h-2.8
			l0.74-4.67h-4.32l-0.74,4.67h-2.8l1.86-11.7h2.8l-0.77,4.84h4.32L85.26,10.63z"/>
		
			<linearGradient id="SVGID_00000133508211129163811590000018154987542807148477_" gradientUnits="userSpaceOnUse" x1="96.9452" y1="11.0297" x2="95.1809" y2="44.8438" gradientTransform="matrix(1 0 -0.1594 1 3.4895 0)">
			<stop  offset="0" style="stop-color:#ACD14A"/>
			<stop  offset="0.5529" style="stop-color:#649941"/>
			<stop  offset="1" style="stop-color:#26361D"/>
		</linearGradient>
		<path style="fill:url(#SVGID_00000133508211129163811590000018154987542807148477_);" d="M108.42,10.63l-8.59,11.83l-2.14-5.19
			l-3.8,5.19L89.1,10.63h3.09l2.59,7.11l1.87-2.63l-1.8-4.18h2.85l0.75,1.96l1.33-1.96h2.77l-3.05,4.07l1.07,2.74l4.87-7.09H108.42z
			"/>
		
			<linearGradient id="SVGID_00000123439413339044840740000005508444544933967001_" gradientUnits="userSpaceOnUse" x1="110.5672" y1="11.7404" x2="108.803" y2="45.5546" gradientTransform="matrix(1 0 -0.1594 1 3.4895 0)">
			<stop  offset="0" style="stop-color:#ACD14A"/>
			<stop  offset="0.5529" style="stop-color:#649941"/>
			<stop  offset="1" style="stop-color:#26361D"/>
		</linearGradient>
		<path style="fill:url(#SVGID_00000123439413339044840740000005508444544933967001_);" d="M112.45,22.33l-0.26-1.08h-4.21
			l-0.62,1.08h-2.74l7.2-11.7l3.44,11.7H112.45z M109.09,19.35h2.62l-0.78-3.17L109.09,19.35z"/>
	</g>
	<g>
		
			<linearGradient id="SVGID_00000005256304709650094870000009782944724274143627_" gradientUnits="userSpaceOnUse" x1="53.3823" y1="16.3569" x2="52.5733" y2="31.8623" gradientTransform="matrix(1 0 -0.1594 1 3.4895 0)">
			<stop  offset="0" style="stop-color:#ACD14A"/>
			<stop  offset="0.5529" style="stop-color:#649941"/>
			<stop  offset="1" style="stop-color:#26361D"/>
		</linearGradient>
		<path style="fill:url(#SVGID_00000005256304709650094870000009782944724274143627_);" d="M59.12,10.63h2.61L53.41,22.8
			l-4.24-11.93h2.76l2.36,7.02L59.12,10.63z"/>
	</g>
</g>
<g>
	
		<linearGradient id="SVGID_00000149371480006897409230000009674227238154109597_" gradientUnits="userSpaceOnUse" x1="17.3655" y1="7.7665" x2="13.7009" y2="30.2243">
		<stop  offset="0" style="stop-color:#ACD14A"/>
		<stop  offset="0.5529" style="stop-color:#649941"/>
		<stop  offset="1" style="stop-color:#26361D"/>
	</linearGradient>
	<polygon style="fill:url(#SVGID_00000149371480006897409230000009674227238154109597_);" points="8.42,8.3 8.99,30.76 13.53,30.76 
		26.14,8.3 21.67,8.3 13.14,23.87 12.93,8.3 	"/>
	
		<linearGradient id="SVGID_00000143583641489376133750000007958650224668481685_" gradientUnits="userSpaceOnUse" x1="32.8637" y1="8.4051" x2="27.9774" y2="31.2388">
		<stop  offset="0" style="stop-color:#ACD14A"/>
		<stop  offset="0.5529" style="stop-color:#649941"/>
		<stop  offset="1" style="stop-color:#26361D"/>
	</linearGradient>
	<polygon style="fill:url(#SVGID_00000143583641489376133750000007958650224668481685_);" points="29.99,12.34 23.55,12.34 
		25.48,8.3 41.36,8.3 40.32,12.34 34.17,12.34 29.42,30.76 25.18,30.76 	"/>
	<g>
		<path class="st15" d="M4.41,16.96c0,0-3.01,8.68,7.24,9.87c0,0,6.39,0.91,13.03-2.29c0.63-0.22,10.71-4.04,17.1-12.25
			c0.75-0.97,3.26-3.85,3.88-8.55c0,0,0.31,5.61-6.8,12.65c-0.53,0.6-9.77,9.99-21.86,11.93c-5.01,0.5-9.58,1-12.69-3.6
			C4,23.85,2.69,21.63,4.41,16.96z"/>
	</g>
	<g>
		<path class="st16" d="M4.41,17.43c0,0-3.01,8.68,7.24,9.87c0,0,6.39,0.91,13.03-2.29c0.63-0.22,10.71-4.04,17.1-12.25
			c0.75-0.97,3.26-3.85,3.88-8.55c0,0,0.31,5.61-6.8,12.65c-0.53,0.6-9.77,9.99-21.86,11.93c-5.01,0.5-9.58,1-12.69-3.6
			C4,24.32,2.69,22.1,4.41,17.43z"/>
	</g>
	<path class="st15" d="M7.02,28.3c0,0,4.49,3.57,14.13-0.28c1.44-0.53,7.45-2.63,15.35-9.49c1.32-1.22,7.52-7.42,8.74-13.28
		c0,0-1.13,6.77-9.08,14.53c0,0-5.81,6.69-15.21,10.16C19.73,30.32,12.08,33.28,7.02,28.3z"/>
	<path d="M7.98,29.11c0,0,4.49,3.57,14.13-0.28c1.44-0.53,7.45-2.63,15.35-9.49c1.32-1.22,7.52-7.42,8.74-13.28
		c0,0-1.13,6.77-9.08,14.53c0,0-5.81,6.69-15.21,10.16C20.69,31.13,13.03,34.09,7.98,29.11z"/>
</g>
<defs>
	<filter id="Adobe_OpacityMaskFilter" filterUnits="userSpaceOnUse" x="3.54" y="31.97" width="42.65" height="28.23">
		<feColorMatrix  type="matrix" values="1 0 0 0 0  0 1 0 0 0  0 0 1 0 0  0 0 0 1 0"/>
	</filter>
</defs>
<mask maskUnits="userSpaceOnUse" x="3.54" y="31.97" width="42.65" height="28.23" id="SVGID_00000110466867613966835870000016265391862212435340_">
	<g class="st17">
		
			<linearGradient id="SVGID_00000051384489258606627300000015760801565217941896_" gradientUnits="userSpaceOnUse" x1="25.5018" y1="32.7885" x2="25.8777" y2="41.6213">
			<stop  offset="0" style="stop-color:#26A9E1"/>
			<stop  offset="0.5529" style="stop-color:#1E5D99"/>
			<stop  offset="1" style="stop-color:#152236"/>
		</linearGradient>
		
			<rect x="1.61" y="31.97" style="fill:url(#SVGID_00000051384489258606627300000015760801565217941896_);" width="48.91" height="28.23"/>
	</g>
</mask>
<g style="opacity:0.5;mask:url(#SVGID_00000110466867613966835870000016265391862212435340_);">
	
		<linearGradient id="SVGID_00000079466294239553137870000009442402150588619441_" gradientUnits="userSpaceOnUse" x1="17.2901" y1="56.0927" x2="16.7263" y2="33.7288">
		<stop  offset="0" style="stop-color:#ACD14A"/>
		<stop  offset="0.5529" style="stop-color:#649941"/>
		<stop  offset="1" style="stop-color:#26361D"/>
	</linearGradient>
	<polygon style="fill:url(#SVGID_00000079466294239553137870000009442402150588619441_);" points="8.42,55.64 8.99,33.19 
		13.53,33.19 26.14,55.64 21.67,55.64 13.14,40.07 12.93,55.64 	"/>
	
		<linearGradient id="SVGID_00000008125572647210685670000008737307875685026209_" gradientUnits="userSpaceOnUse" x1="32.5068" y1="55.709" x2="31.943" y2="33.3452">
		<stop  offset="0" style="stop-color:#ACD14A"/>
		<stop  offset="0.5529" style="stop-color:#649941"/>
		<stop  offset="1" style="stop-color:#26361D"/>
	</linearGradient>
	<polygon style="fill:url(#SVGID_00000008125572647210685670000008737307875685026209_);" points="29.99,51.6 23.55,51.6 
		25.48,55.64 41.36,55.64 40.32,51.6 34.17,51.6 29.42,33.19 25.18,33.19 	"/>
	<g>
		<path class="st15" d="M4.41,46.98c0,0-3.01-8.68,7.24-9.87c0,0,6.39-0.91,13.03,2.29c0.63,0.22,10.71,4.04,17.1,12.25
			c0.75,0.97,3.26,3.85,3.88,8.55c0,0,0.31-5.61-6.8-12.65c-0.53-0.6-9.77-9.99-21.86-11.93c-5.01-0.5-9.58-1-12.69,3.6
			C4,40.09,2.69,42.32,4.41,46.98z"/>
	</g>
	<g>
		<path class="st16" d="M4.41,46.51c0,0-3.01-8.68,7.24-9.87c0,0,6.39-0.91,13.03,2.29c0.63,0.22,10.71,4.04,17.1,12.25
			c0.75,0.97,3.26,3.85,3.88,8.55c0,0,0.31-5.61-6.8-12.65c-0.53-0.6-9.77-9.99-21.86-11.93c-5.01-0.5-9.58-1-12.69,3.6
			C4,39.62,2.69,41.85,4.41,46.51z"/>
	</g>
	<path class="st15" d="M7.02,35.64c0,0,4.49-3.57,14.13,0.28c1.44,0.53,7.45,2.63,15.35,9.49c1.32,1.22,7.52,7.42,8.74,13.28
		c0,0-1.13-6.77-9.08-14.53c0,0-5.81-6.69-15.21-10.16C19.73,33.62,12.08,30.66,7.02,35.64z"/>
	<path d="M7.98,34.83c0,0,4.49-3.57,14.13,0.28c1.44,0.53,7.45,2.63,15.35,9.49c1.32,1.22,7.52,7.42,8.74,13.28
		c0,0-1.13-6.77-9.08-14.53c0,0-5.81-6.69-15.21-10.16C20.69,32.81,13.03,29.85,7.98,34.83z"/>
</g>
</svg>
