<?xml version="1.0" encoding="utf-8"?>
<!-- Generator: Adobe Illustrator 27.7.0, SVG Export Plug-In . SVG Version: 6.00 Build 0)  -->
<svg version="1.1" id="Layer_1" xmlns="http://www.w3.org/2000/svg" xmlns:xlink="http://www.w3.org/1999/xlink" x="0px" y="0px"
	 viewBox="0 0 47.74 41.19" style="enable-background:new 0 0 47.74 41.19;" xml:space="preserve">
<style type="text/css">
	.st0{fill:#CF2128;}
	.st1{fill:#F15A29;}
	.st2{fill:url(#SVGID_1_);}
	.st3{fill:url(#SVGID_00000044167540549258718490000006460595970325884582_);}
	.st4{fill:url(#SVGID_00000164475235146512702750000011291432494338601606_);}
	.st5{fill:#FFFFFF;}
	.st6{fill:#99CB52;}
	.st7{filter:url(#Adobe_OpacityMaskFilter);}
	.st8{fill:url(#SVGID_00000026845329960346997600000011602107966660377023_);}
	.st9{opacity:0.5;mask:url(#SVGID_00000104686034980261953400000008080847137210099858_);}
	.st10{fill:url(#SVGID_00000148646043557242997200000011916176679009320837_);}
	.st11{fill:url(#SVGID_00000114771522090602203130000015943847196808200333_);}
</style>
<path class="st0" d="M-19.56-79.39l8.39,14.26l7.7-14.26h6l3.79,3.93c0.75,0.77,0.72,2-0.06,2.74L-8.64-58.57l-14.52-14.28
	c-0.75-0.74-0.77-1.95-0.05-2.71L-19.56-79.39z"/>
<path class="st1" d="M-11.36-72.89l-4.96-9.46l7.17-6.89c0.4-0.38,1.02-0.39,1.43-0.02l6.65,6.06l-12.76,0.06
	c-0.32,0-0.53,0.33-0.4,0.62l1.42,3.12h5.11L-11.36-72.89z"/>
<text transform="matrix(1 0 0 1 101.0336 6.0325)" style="font-family:'SyntaxNextLTW04-Heavy'; font-size:9.7433px; letter-spacing:3;">TRADERS</text>
<text transform="matrix(1.141 0 0 1 111.8695 -4.1218)" style="font-family:'WrightRoman-ExtraBold'; font-size:14.3728px;">ISHWA</text>
<g>
	<path d="M116.81-29.75h2.56L105.92-3.66l-6.04-11.73h2.71l3.41,6.9L116.81-29.75z"/>
</g>
<linearGradient id="SVGID_1_" gradientUnits="userSpaceOnUse" x1="36.3082" y1="-89.0412" x2="20.8929" y2="-54.5404">
	<stop  offset="0" style="stop-color:#CF2128"/>
	<stop  offset="1" style="stop-color:#761214"/>
</linearGradient>
<path class="st2" d="M25.11-87.57H46.2l-2.36,4.08c-0.36,0.62-1.01,0.99-1.72,0.99h-3.39l-7.47,17.08l-3.69-4.98l4.69-12.3
	l-5.07,0.07L25.11-87.57z"/>
<path class="st0" d="M15.97-87.57h6.54l8.74,22.16l-0.9,1.3c-0.19,0.28-0.5,0.45-0.83,0.47l-3.54,0.23L15.97-87.57z"/>
<g>
	
		<linearGradient id="SVGID_00000122716301391622820380000017080008828564234930_" gradientUnits="userSpaceOnUse" x1="17.3655" y1="7.7665" x2="13.7009" y2="30.2243">
		<stop  offset="0" style="stop-color:#ACD14A"/>
		<stop  offset="0.5529" style="stop-color:#649941"/>
		<stop  offset="1" style="stop-color:#26361D"/>
	</linearGradient>
	<polygon style="fill:url(#SVGID_00000122716301391622820380000017080008828564234930_);" points="8.42,8.3 8.99,30.76 13.53,30.76 
		26.14,8.3 21.67,8.3 13.14,23.87 12.93,8.3 	"/>
	
		<linearGradient id="SVGID_00000047062103767227263310000017277026541679671486_" gradientUnits="userSpaceOnUse" x1="32.8637" y1="8.4051" x2="27.9774" y2="31.2388">
		<stop  offset="0" style="stop-color:#ACD14A"/>
		<stop  offset="0.5529" style="stop-color:#649941"/>
		<stop  offset="1" style="stop-color:#26361D"/>
	</linearGradient>
	<polygon style="fill:url(#SVGID_00000047062103767227263310000017277026541679671486_);" points="29.99,12.34 23.55,12.34 
		25.48,8.3 41.36,8.3 40.32,12.34 34.17,12.34 29.42,30.76 25.18,30.76 	"/>
	<g>
		<path class="st5" d="M4.41,16.96c0,0-3.01,8.68,7.24,9.87c0,0,6.39,0.91,13.03-2.29c0.63-0.22,10.71-4.04,17.1-12.25
			c0.75-0.97,3.26-3.85,3.88-8.55c0,0,0.31,5.61-6.8,12.65c-0.53,0.6-9.77,9.99-21.86,11.93c-5.01,0.5-9.58,1-12.69-3.6
			C4,23.85,2.69,21.63,4.41,16.96z"/>
	</g>
	<g>
		<path class="st6" d="M4.41,17.43c0,0-3.01,8.68,7.24,9.87c0,0,6.39,0.91,13.03-2.29c0.63-0.22,10.71-4.04,17.1-12.25
			c0.75-0.97,3.26-3.85,3.88-8.55c0,0,0.31,5.61-6.8,12.65c-0.53,0.6-9.77,9.99-21.86,11.93c-5.01,0.5-9.58,1-12.69-3.6
			C4,24.32,2.69,22.1,4.41,17.43z"/>
	</g>
	<path class="st5" d="M7.02,28.3c0,0,4.49,3.57,14.13-0.28c1.44-0.53,7.45-2.63,15.35-9.49c1.32-1.22,7.52-7.42,8.74-13.28
		c0,0-1.13,6.77-9.08,14.53c0,0-5.81,6.69-15.21,10.16C19.73,30.32,12.08,33.28,7.02,28.3z"/>
	<path d="M7.98,29.11c0,0,4.49,3.57,14.13-0.28c1.44-0.53,7.45-2.63,15.35-9.49c1.32-1.22,7.52-7.42,8.74-13.28
		c0,0-1.13,6.77-9.08,14.53c0,0-5.81,6.69-15.21,10.16C20.69,31.13,13.03,34.09,7.98,29.11z"/>
</g>
<defs>
	<filter id="Adobe_OpacityMaskFilter" filterUnits="userSpaceOnUse" x="3.54" y="31.97" width="42.65" height="28.23">
		<feColorMatrix  type="matrix" values="1 0 0 0 0  0 1 0 0 0  0 0 1 0 0  0 0 0 1 0"/>
	</filter>
</defs>
<mask maskUnits="userSpaceOnUse" x="3.54" y="31.97" width="42.65" height="28.23" id="SVGID_00000037680450966370590480000013989163091076194703_">
	<g class="st7">
		
			<linearGradient id="SVGID_00000181073163800385873960000012037050935268871573_" gradientUnits="userSpaceOnUse" x1="25.5018" y1="32.7885" x2="25.8777" y2="41.6213">
			<stop  offset="0" style="stop-color:#26A9E1"/>
			<stop  offset="0.5529" style="stop-color:#1E5D99"/>
			<stop  offset="1" style="stop-color:#152236"/>
		</linearGradient>
		
			<rect x="1.61" y="31.97" style="fill:url(#SVGID_00000181073163800385873960000012037050935268871573_);" width="48.91" height="28.23"/>
	</g>
</mask>
<g style="opacity:0.5;mask:url(#SVGID_00000037680450966370590480000013989163091076194703_);">
	
		<linearGradient id="SVGID_00000098211663890886936680000002445636685576538805_" gradientUnits="userSpaceOnUse" x1="17.2901" y1="56.0927" x2="16.7263" y2="33.7288">
		<stop  offset="0" style="stop-color:#ACD14A"/>
		<stop  offset="0.5529" style="stop-color:#649941"/>
		<stop  offset="1" style="stop-color:#26361D"/>
	</linearGradient>
	<polygon style="fill:url(#SVGID_00000098211663890886936680000002445636685576538805_);" points="8.42,55.64 8.99,33.19 
		13.53,33.19 26.14,55.64 21.67,55.64 13.14,40.07 12.93,55.64 	"/>
	
		<linearGradient id="SVGID_00000021820184718331439310000016611054072751830187_" gradientUnits="userSpaceOnUse" x1="32.5068" y1="55.709" x2="31.943" y2="33.3452">
		<stop  offset="0" style="stop-color:#ACD14A"/>
		<stop  offset="0.5529" style="stop-color:#649941"/>
		<stop  offset="1" style="stop-color:#26361D"/>
	</linearGradient>
	<polygon style="fill:url(#SVGID_00000021820184718331439310000016611054072751830187_);" points="29.99,51.6 23.55,51.6 
		25.48,55.64 41.36,55.64 40.32,51.6 34.17,51.6 29.42,33.19 25.18,33.19 	"/>
	<g>
		<path class="st5" d="M4.41,46.98c0,0-3.01-8.68,7.24-9.87c0,0,6.39-0.91,13.03,2.29c0.63,0.22,10.71,4.04,17.1,12.25
			c0.75,0.97,3.26,3.85,3.88,8.55c0,0,0.31-5.61-6.8-12.65c-0.53-0.6-9.77-9.99-21.86-11.93c-5.01-0.5-9.58-1-12.69,3.6
			C4,40.09,2.69,42.32,4.41,46.98z"/>
	</g>
	<g>
		<path class="st6" d="M4.41,46.51c0,0-3.01-8.68,7.24-9.87c0,0,6.39-0.91,13.03,2.29c0.63,0.22,10.71,4.04,17.1,12.25
			c0.75,0.97,3.26,3.85,3.88,8.55c0,0,0.31-5.61-6.8-12.65c-0.53-0.6-9.77-9.99-21.86-11.93c-5.01-0.5-9.58-1-12.69,3.6
			C4,39.62,2.69,41.85,4.41,46.51z"/>
	</g>
	<path class="st5" d="M7.02,35.64c0,0,4.49-3.57,14.13,0.28c1.44,0.53,7.45,2.63,15.35,9.49c1.32,1.22,7.52,7.42,8.74,13.28
		c0,0-1.13-6.77-9.08-14.53c0,0-5.81-6.69-15.21-10.16C19.73,33.62,12.08,30.66,7.02,35.64z"/>
	<path d="M7.98,34.83c0,0,4.49-3.57,14.13,0.28c1.44,0.53,7.45,2.63,15.35,9.49c1.32,1.22,7.52,7.42,8.74,13.28
		c0,0-1.13-6.77-9.08-14.53c0,0-5.81-6.69-15.21-10.16C20.69,32.81,13.03,29.85,7.98,34.83z"/>
</g>
</svg>
