<?xml version="1.0" encoding="utf-8"?>
<!-- Generator: Adobe Illustrator 26.3.1, SVG Export Plug-In . SVG Version: 6.00 Build 0)  -->
<svg version="1.1" id="Layer_1" xmlns="http://www.w3.org/2000/svg" xmlns:xlink="http://www.w3.org/1999/xlink" x="0px" y="0px"
	 viewBox="0 0 170.45 182.61" style="enable-background:new 0 0 170.45 182.61;" xml:space="preserve">
<style type="text/css">
	.st0{fill:url(#SVGID_1_);}
</style>
<linearGradient id="SVGID_1_" gradientUnits="userSpaceOnUse" x1="17.979" y1="35.0261" x2="159.5845" y2="176.6316">
	<stop  offset="0" style="stop-color:#4BB984"/>
	<stop  offset="0.31" style="stop-color:#5FA4A6"/>
	<stop  offset="0.6453" style="stop-color:#728CB6"/>
	<stop  offset="1" style="stop-color:#8072B1"/>
</linearGradient>
<path class="st0" d="M146.75,159.43h-17.7V16.72c0-3.11-2.52-5.64-5.64-5.64H47.03c-3.11,0-5.64,2.52-5.64,5.64v142.71H23.7
	c-1.25,0-2.26,1.01-2.26,2.26v7.59c0,1.25,1.01,2.26,2.26,2.26h123.06c1.25,0,2.26-1.01,2.26-2.26v-7.59
	C149.01,160.44,148,159.43,146.75,159.43z M102.7,57.34h11.66c0.62,0,1.13,0.5,1.13,1.13v21.5c0,0.62-0.5,1.13-1.13,1.13H102.7
	c-0.62,0-1.13-0.5-1.13-1.13v-21.5C101.57,57.84,102.07,57.34,102.7,57.34z M101.57,46.83v-21.5c0-0.62,0.5-1.13,1.13-1.13h11.66
	c0.62,0,1.13,0.5,1.13,1.13v21.5c0,0.62-0.5,1.13-1.13,1.13H102.7C102.07,47.95,101.57,47.45,101.57,46.83z M102.7,90.39h11.66
	c0.62,0,1.13,0.5,1.13,1.13v21.5c0,0.62-0.5,1.13-1.13,1.13H102.7c-0.62,0-1.13-0.5-1.13-1.13v-21.5
	C101.57,90.89,102.07,90.39,102.7,90.39z M91.06,81.09H79.39c-0.62,0-1.13-0.5-1.13-1.13v-21.5c0-0.62,0.5-1.13,1.13-1.13h11.66
	c0.62,0,1.13,0.5,1.13,1.13v21.5C92.18,80.59,91.68,81.09,91.06,81.09z M92.18,91.51v21.5c0,0.62-0.5,1.13-1.13,1.13H79.39
	c-0.62,0-1.13-0.5-1.13-1.13v-21.5c0-0.62,0.5-1.13,1.13-1.13h11.66C91.68,90.39,92.18,90.89,92.18,91.51z M91.06,47.95H79.39
	c-0.62,0-1.13-0.5-1.13-1.13v-21.5c0-0.62,0.5-1.13,1.13-1.13h11.66c0.62,0,1.13,0.5,1.13,1.13v21.5
	C92.18,47.45,91.68,47.95,91.06,47.95z M67.75,81.09H56.09c-0.62,0-1.13-0.5-1.13-1.13v-21.5c0-0.62,0.5-1.13,1.13-1.13h11.66
	c0.62,0,1.13,0.5,1.13,1.13v21.5C68.88,80.59,68.38,81.09,67.75,81.09z M68.88,91.51v21.5c0,0.62-0.5,1.13-1.13,1.13H56.09
	c-0.62,0-1.13-0.5-1.13-1.13v-21.5c0-0.62,0.5-1.13,1.13-1.13h11.66C68.38,90.39,68.88,90.89,68.88,91.51z M67.75,47.95H56.09
	c-0.62,0-1.13-0.5-1.13-1.13v-21.5c0-0.62,0.5-1.13,1.13-1.13h11.66c0.62,0,1.13,0.5,1.13,1.13v21.5
	C68.88,47.45,68.38,47.95,67.75,47.95z M68.88,159.43v-23.73l0,0v-8.89c0-1.87,1.51-3.38,3.38-3.38h25.92
	c1.87,0,3.38,1.51,3.38,3.38v26.97c0,0,0,0,0,0v5.64H68.88z"/>
</svg>
