<?xml version="1.0" encoding="utf-8"?>
<!-- Generator: Adobe Illustrator 26.3.1, SVG Export Plug-In . SVG Version: 6.00 Build 0)  -->
<svg version="1.1" id="Layer_1" xmlns="http://www.w3.org/2000/svg" xmlns:xlink="http://www.w3.org/1999/xlink" x="0px" y="0px"
	 viewBox="0 0 170.45 182.61" style="enable-background:new 0 0 170.45 182.61;" xml:space="preserve">
<style type="text/css">
	.st0{fill:url(#SVGID_1_);}
</style>
<linearGradient id="SVGID_1_" gradientUnits="userSpaceOnUse" x1="11.8417" y1="44.3586" x2="141.3417" y2="146.8586">
	<stop  offset="0" style="stop-color:#4BB984"/>
	<stop  offset="0.31" style="stop-color:#5FA4A6"/>
	<stop  offset="0.6453" style="stop-color:#728CB6"/>
	<stop  offset="1" style="stop-color:#8072B1"/>
</linearGradient>
<path class="st0" d="M146.24,127.23c-2.11-6.51-22.96-11.65-32.13-13.61c-2.44-0.52-5.13,0.71-6.63,2.47
	c-1.66,1.95-6.24,7.29-9.21,9.52c-2.1,1.58-5.15,1.48-7.7,0.05c-7.96-4.45-14.21-9.57-22.36-17.35
	c-7.79-8.15-12.91-14.4-17.35-22.36c-1.43-2.55-1.52-5.6,0.05-7.7c2.24-2.97,7.57-7.55,9.52-9.21c1.76-1.49,2.99-4.18,2.47-6.63
	c-1.96-9.16-7.1-30.02-13.61-32.13c-8.36-2.71-17.16,1.62-23.49,10.47c-8.23,11.49,5.46,58.1,29.06,80.9
	c22.8,23.6,69.42,37.29,80.9,29.06C144.62,144.38,148.95,135.59,146.24,127.23z"/>
</svg>
