<?xml version="1.0" encoding="utf-8"?>
<!-- Generator: Adobe Illustrator 27.7.0, SVG Export Plug-In . SVG Version: 6.00 Build 0)  -->
<svg version="1.1" id="Layer_1" xmlns="http://www.w3.org/2000/svg" xmlns:xlink="http://www.w3.org/1999/xlink" x="0px" y="0px"
	 viewBox="0 0 600 600" style="enable-background:new 0 0 600 600;" xml:space="preserve">
<style type="text/css">
	.st0{fill:#FFFFFF;}
</style>
<g>
	<path class="st0" d="M311.9,509.9c-12.2,0.3-23.5-4.2-35.1-7.2c-24.3-6.3-48.6-12.8-72.8-19.6c-6.6-1.9-10.5,2-15.2,4.5
		c-1.6,0.8-0.7,2.2,0,3.3c1.5,2.8,3.2,5.5,4.6,8.3c4.6,9.5,2,19.7-7,25.3c-7.2,4.5-14.7,8.7-22.3,12.7c-10.1,5.2-20.8,1.7-26.7-8.6
		c-18.1-31.9-36.2-63.9-54.2-95.8c-2.6-4.5-5.3-9-7.7-13.6c-5.5-10.5-2.7-20.9,7.5-27c6.9-4.1,14-8.1,21.1-11.8
		c10.1-5.2,20.3-2.2,26.2,7.5c4.9,7.9,4.9,7.9,13.1,3.1c16.7-9.7,33.4-19.4,50.2-28.9c9.4-5.3,19.3-9.4,30.2-10.6
		c8.6-0.9,16.6,1.1,24.6,3.8c19,6.6,37.7,13.9,57.2,18.7c4.4,1.1,8.9,2,13.4,3.1c17.8,4.1,27.6,20.4,22.9,37.9
		c-0.3,1.1-1.6,2.5-0.2,3.4c1.1,0.7,2.4-0.4,3.5-1c11.4-6.5,22.8-13,34.1-19.6c15.6-9,31.1-18.2,46.8-27.2
		c10.1-5.8,20.7-10.1,32.4-11.6c15-1.9,29.2,5.9,34,19.2c5.5,15.1,0.3,30.8-12.9,38.9c-44.9,27.6-89.7,55.2-134.6,82.9
		C334.9,506.2,324.1,510,311.9,509.9z M312.8,493.5c7.9,0.5,15.7-2.5,23.2-7.1c30.3-18.7,60.6-37.3,90.9-56
		c15-9.2,29.9-18.4,44.8-27.7c5.9-3.7,8.1-10.8,5.9-18c-1.8-6.1-6.6-9.5-13.6-9.7c-2.9-0.1-5.7,0.2-8.5,0.8
		c-8.6,1.9-16.3,5.9-23.9,10.3c-25.5,14.7-50.8,29.7-76.4,44.3c-10.4,6-21.7,8.1-33.8,6.8c-22-2.5-42.8-9.7-64-15.5
		c-5.2-1.4-7.5-5.4-6.4-10c1.1-4.4,5.3-6.8,10.5-5.6c6.9,1.7,13.7,3.8,20.6,5.7c9,2.4,18,4.9,27.1,6.9c9,2,15.8-2.2,17.5-10.1
		c1.4-7-3.6-13.8-11.7-15.8c-1.8-0.5-3.7-0.8-5.6-1.2c-23.1-5-45.2-13.4-67.3-21.4c-10.6-3.8-20.8-3.4-30.9,1.1
		c-4.3,1.9-8.6,4.1-12.7,6.4c-17.3,9.9-34.5,20-51.8,29.9c-3.1,1.7-3.5,3.1-1.7,6.2c9.7,16.7,19.1,33.6,28.6,50.4
		c5.6,9.9,5.7,10.1,15.3,4.3c4.9-3,9.5-3.7,15.2-2.1c25.4,7.1,50.9,13.9,76.5,20.6C291,489.6,300.9,493.7,312.8,493.5z M112.7,394.1
		c-0.9,0.4-2.1,0.9-3.2,1.5c-4.7,2.6-9.4,5.3-14,7.9c-7.5,4.3-7.5,4.5-3.4,11.9c10.9,19.3,21.8,38.5,32.7,57.8
		c8.4,14.9,16.8,29.7,25.2,44.6c3.5,6.1,4,6.3,10.3,2.8c4.8-2.7,9.6-5.5,14.4-8.2c5-2.9,5.4-4,2.5-9c-8.9-15.7-17.7-31.4-26.6-47.1
		c-11-19.4-22-38.8-33-58.2C116.6,396.4,115.7,394.2,112.7,394.1z"/>
	<path class="st0" d="M336.1,67.7c6.4-0.4,12.3,1.1,16.6,5.1c11.6,10.6,25,14.7,40.6,15c13.5,0.3,23.1,9.7,26.4,22.8
		c6,23.9,2,17.1,19.9,34.6c10.1,9.8,13.5,22.9,6.4,35.1c-7.9,13.7-9.1,27.4-7,42.7c1.6,11.7-4.5,21.5-15.2,27.4
		c-3.4,1.9-3.5,3.6-2.1,6.7c6.6,15.1,13,30.2,19.6,45.3c1.6,3.7,3,7.5,0.1,11.2c-3.1,3.9-7.2,3.3-11.3,2.4
		c-7.4-1.6-14.9-2.8-22.3-4.7c-3.9-1-5.8,0.2-7.6,3.4c-3.9,6.7-8.2,13.2-12.2,19.8c-2.1,3.4-4.5,6.3-8.9,6.1
		c-4.6-0.3-6.6-3.7-8.2-7.6c-5.6-13.2-11.5-26.4-17-39.7c-1.4-3.3-3.4-5-6.8-5.7c-5-1.1-9.8-3.5-15.3-2c-3.2,0.9-5.2,2.1-6.6,5.2
		c-7.5,16.6-15.3,33-23,49.5c-0.7,1.4-1.4,2.8-2,4.3c-1.6,3.8-3.8,7.2-8.4,7.4c-4.6,0.2-6.9-3.2-8.9-6.8c-3.8-6.6-7.8-13-11.4-19.7
		c-1.8-3.3-3.7-4.4-7.5-3.6c-7.7,1.6-15.6,2.6-23.3,4.1c-4.1,0.8-7.7,0.7-10.3-2.8c-2.7-3.5-1.5-7.2,0.2-10.7
		c8.3-17.8,16.5-35.6,24.9-53.3c1.6-3.4,1-4.8-2.4-6.3c-15.6-6.8-21.9-17.9-20.1-34.7c0.2-1.7,0.3-3.5,0.8-5.2
		c3.1-11.1-1.7-20.4-6.8-29.6c-3.9-7.2-5.7-14.7-3.6-22.8c1.3-5,3.5-9.5,7-13.3c0.8-0.9,1.7-2,2.7-2.7c11.5-8,16.6-19.4,19.1-33
		c2.8-15.2,13.4-23,30.2-24.5c1.3-0.1,2.5-0.3,3.8-0.2c10.1,0.8,18.5-2.5,26.1-9.1C319.3,71.9,326.7,67,336.1,67.7z M365.3,275
		c4.1,0.5,8-1.7,10.9-5.7c2.3-3.1,4.4-6.2,6.3-9.5c5.2-9,12.7-15.2,22.5-18.7c2.5-0.9,5-2.1,7.4-3.2c9.1-4,11.9-8.9,10.1-18.8
		c-2.6-14-1.4-27.1,6-39.8c7.4-12.8,6.7-16.6-4.4-26.2c-10.7-9.3-17.3-20.3-19.2-34.3c-0.1-0.9-0.4-1.8-0.7-2.8
		c-2.2-8.9-6.6-12.3-15.7-12.7c-5.8-0.3-11.7-0.6-17.5-1.4c-9.5-1.4-16.5-7.7-23.7-13.3c-8.6-6.5-13.5-6.6-22.2-0.2
		c-1,0.8-2.1,1.4-3,2.3c-10.4,9.6-22.9,12.7-36.7,12.7c-11.5,0-15.9,3.2-17.9,14.7c-2.5,14.6-9,26.2-20.3,35.8
		c-10.1,8.6-10.3,13.1-4.1,24.8c3.9,7.3,8.2,14.5,8,23.1c-0.1,6.6-1.1,13.2-1.9,19.8c-0.8,6.6,2,12.3,8,15.2
		c3.1,1.5,6.3,2.9,9.6,4.1c9.9,3.7,17.2,10,22.9,19c11.2,17.5,12.2,17.8,31.9,11.5c9.6-3.1,18.8-3.3,28.4-0.1
		C354.7,272.8,359.3,274.8,365.3,275z M291,326.1c5.3-11.3,10.1-21.7,14.9-32.1c1.1-2.4-0.5-2.5-2.2-2.7
		c-9.8-1.5-17.3-6.4-22.6-14.8c-2.3-3.6-4.7-7.1-7-10.7c-1.4-2.1-2.4-2.8-3.7,0.1c-5.7,12.5-11.5,24.9-17.4,37.4
		c-1.8,3.8,0.1,4,3.1,3.5c4.3-0.8,8.7-1.6,13-2.3c6.7-1.1,9.1,0,12.5,5.8C284.6,315.2,287.5,320.2,291,326.1z M421.5,297.4
		c-5.5-12.7-10.5-24.4-15.6-36.1c-1.2-2.6-2.7-1.3-4.1-0.1c-3,2.7-5,6.1-7,9.5c-5.2,8.7-11.2,16.5-21.5,19.6
		c-1.5,0.4-2.1,1.4-1.5,2.9c2.9,6.9,5.9,13.8,9.2,21.6c3.9-6.3,7.3-11.6,10.6-16.9c2.4-3.9,5.7-5.6,10.4-4.5
		C408.1,294.9,414.3,296,421.5,297.4z"/>
	<path class="st0" d="M109.8,407.7c4.6,0,8.1,3.5,8,8.1c-0.1,4.4-3.5,7.8-7.9,7.8c-4.7,0-8-3.4-7.9-8.1
		C102.1,411.1,105.5,407.7,109.8,407.7z"/>
	<path class="st0" d="M336.3,109.5c38.6,0,70.1,31.6,70.1,70.1c0,38.6-31.9,70.2-70.8,70.1c-38.1-0.1-70.2-31.7-69.8-70
		C266.2,135.9,302.2,108.5,336.3,109.5z M336.3,233.2c29.8-0.1,53.6-23.9,53.6-53.7c0-29.9-24.4-54.2-54.1-53.9
		c-29.9,0.3-53.8,24.6-53.7,54.4C282.2,209.4,306.5,233.2,336.3,233.2z"/>
	<path class="st0" d="M377.7,158c-0.2,2.4-1.1,4.3-2.8,5.9c-15.6,14.3-31.2,28.6-47,42.7c-3.8,3.4-8.2,3.2-11.9-0.4
		c-6.4-6.1-12.6-12.4-18.8-18.8c-3.4-3.5-3.4-8.4-0.4-11.5c3.2-3.3,7.6-3.5,11.5-0.1c3.8,3.3,7.4,6.9,10.8,10.6
		c2.5,2.7,4.2,2.7,6.9,0.1c12.4-11.5,25-22.7,37.6-34.1c2.8-2.6,6-3.5,9.6-1.8C376.1,152.2,377.4,154.9,377.7,158z"/>
</g>
</svg>
