<?xml version="1.0" encoding="utf-8"?>
<!-- Generator: Adobe Illustrator 27.7.0, SVG Export Plug-In . SVG Version: 6.00 Build 0)  -->
<svg version="1.1" id="Layer_1" xmlns="http://www.w3.org/2000/svg" xmlns:xlink="http://www.w3.org/1999/xlink" x="0px" y="0px"
	 viewBox="0 0 600 600" style="enable-background:new 0 0 600 600;" xml:space="preserve">
<style type="text/css">
	.st0{fill:#FFFFFF;}
</style>
<g>
	<path class="st0" d="M532.48,283.39c5.34,0.04,10.68,0.07,16.01,0.11c0,5.5,0,11.01,0,16.51c-5.56,0.03-11.12,0.07-16.68,0.1
		C532.04,294.53,532.26,288.96,532.48,283.39z"/>
	<path class="st0" d="M507.71,51.41c-0.09,5.46-0.19,10.91-0.28,16.37c-5.11,0.03-10.22,0.07-15.33,0.1l0.17,0.22
		c-0.03-5.56-0.07-11.12-0.1-16.69C497.35,51.41,502.53,51.41,507.71,51.41z"/>
	<path class="st0" d="M83.35,51.41c-0.03,5.56-0.06,11.12-0.1,16.68l0.16-0.22c-5.22,0-10.44-0.01-15.66-0.01l0.19,0.21
		c-0.04-5.55-0.09-11.11-0.13-16.66C72.99,51.41,78.17,51.41,83.35,51.41z"/>
	<path class="st0" d="M451.38,548.43c-1.13,0.05-2.25,0.15-3.38,0.15c-98.73,0.01-197.47,0.01-296.2,0c-1.13,0-2.25-0.1-3.38-0.15
		c-0.26-0.27-0.52-0.54-0.78-0.82c-0.05-41.91-0.1-83.81-0.15-125.72c-0.01-5.78,0-11.56,0-17.68c-9.64,0-18.81,0-28.63,0
		c0.7-1.94,1.07-3.41,1.73-4.75c9.29-18.66,18.69-37.25,27.85-55.97c1.37-2.8,3-3.54,5.88-3.54c97.09,0.06,194.18,0.04,291.27,0.14
		c1.56,0,3.93,0.97,4.54,2.19c10.28,20.3,20.35,40.72,30.78,61.74c-9.67,0-18.9,0-28.6,0c0,2.29,0,4.02,0,5.75
		c0,44.18,0,88.35-0.01,132.53c0,1.78-0.09,3.55-0.14,5.33C451.9,547.89,451.64,548.16,451.38,548.43z M270.61,387.38
		c5.21-10.28,10.43-20.55,15.81-31.17c-38.36,0-76.21,0.37-114.03-0.26c-9.25-0.15-14.59,1.97-17.73,10.96
		c-2.53,7.27-6.71,13.96-10.33,21.23c42.31,0,83.88,0,125.44,0C270.05,387.89,270.33,387.64,270.61,387.38z M454.25,388.1
		c0.23-0.02,0.46-0.04,0.69-0.06c-0.2-0.23-0.41-0.45-0.61-0.68c-4.42-9.06-8.98-18.05-13.17-27.21c-1.39-3.03-3.02-4.03-6.37-4.02
		c-38.98,0.13-77.97,0.09-116.95,0.09c-1.41,0-2.82,0-5.37,0c5.52,10.91,10.64,21.04,15.76,31.16c0.28,0.26,0.56,0.51,0.83,0.77
		c20.06,0.04,40.12,0.13,60.18,0.12C410.9,388.26,432.58,388.16,454.25,388.1z M291.86,385.54c-0.12-0.65-0.25-1.31-0.37-1.96
		c-0.47,0.6-0.95,1.2-1.42,1.8c-2.56,4.96-5.29,9.85-7.61,14.92c-1.39,3.04-3.25,3.96-6.58,3.95c-35.59-0.13-71.18-0.08-106.77-0.08
		c-1.72,0-3.43,0-5.16,0c0,43.1,0,85.57,0,128.04c42.74,0,85.19,0,128.14,0c0-18.63,0-36.96,0-55.26c5.46,0,10.42,0,15.84,0
		c0,18.55,0,36.9,0,55.28c42.93,0,85.39,0,127.92,0c0-42.74,0-85.2,0-128.06c-2.02,0-3.77,0-5.52,0c-35.59,0-71.18-0.07-106.77,0.09
		c-3.94,0.02-6-1.08-7.51-4.8c-2.09-5.15-4.94-9.98-7.47-14.95c-0.21-0.24-0.42-0.47-0.63-0.71c-0.01,0.26-0.02,0.51-0.02,0.77
		c-0.04,0.8-0.1,1.61-0.1,2.41c-0.01,20.17,0,40.33-0.01,60.5c0,2.18,0.61,4.88-2.88,4.95c-4.29,0.1-8.58,0.02-13.08,0.02
		C291.86,429.73,291.86,407.63,291.86,385.54z"/>
	<path class="st0" d="M262.34,181.89c-0.76-12.71-0.8-24.78-2.49-36.61c-0.77-5.41-4.61-10.45-7.39-15.48
		c-3.93-7.11-8.17-14.05-12.47-21.4c8.59-3.7,16.39-7.78,24.64-10.42c8.89-2.85,14.27-9.28,19.64-16.05
		c4.43-5.58,8.74-11.27,13.21-16.82c2.16-2.68,3.73-0.45,5.02,1.07c4.51,5.34,9.52,10.4,13.17,16.29
		c5.76,9.3,14.17,14.16,24.06,17.66c6.58,2.33,12.8,5.64,19.49,8.65c-6.14,10.21-12.28,20.03-17.96,30.12
		c-1.56,2.77-1.96,6.29-2.43,9.54c-0.59,4.09-0.78,8.24-1.02,12.37c-0.4,6.71-0.7,13.42-1.08,20.96c-5.24-1.21-10.3-2.28-15.32-3.55
		c-6.81-1.73-13.49-4.46-20.38-5.12c-4.91-0.47-10.12,1.59-15.14,2.79C278.11,177.74,270.42,179.82,262.34,181.89z M336.79,116.35
		c-2.12-0.92-3.13-1.33-4.13-1.8c-8.67-4.04-18.68-5.93-24.14-15.15c-0.96-1.62-2.22-3.09-3.5-4.48c-5.92-6.5-5.61-6.2-11.39,0.79
		c-4.59,5.54-8.39,12.09-16.4,14.14c-4.87,1.25-9.35,4.02-14.71,6.42c11.01,12.99,15.75,27.98,13.57,46.75
		c15.91-8.55,30.84-6.76,46.56-0.62C320.96,144.3,325.48,129.41,336.79,116.35z"/>
	<path class="st0" d="M454.49,238.88c-33.32,18.57-53.18,50.11-76.64,78.09c-0.36-0.2-0.71-0.41-1.07-0.61
		c0.27-3.02,0.31-6.09,0.84-9.06c3.48-19.68,3.49-39.89,9.61-59.18c3.9-12.31,9.6-23.65,18-33.26c7.35-8.42,15.96-15.74,24.92-24.42
		C438.65,207.35,446.42,222.82,454.49,238.88z M399.89,262.18c0.91-0.16,1.51-0.09,1.8-0.35c9.98-8.98,19.98-17.94,29.82-27.08
		c0.79-0.73,1.04-2.9,0.57-3.99c-1.95-4.54-4.27-8.93-6.67-13.82C411.53,229.25,404.06,244.58,399.89,262.18z"/>
	<path class="st0" d="M221.09,316.89c-23.29-27.89-43.04-59.26-76.3-77.73c7.97-15.96,15.67-31.4,23.97-48
		c7.94,7.12,16.16,13.41,23.05,20.93c9.31,10.16,16.25,22.16,19.98,35.48c2.65,9.47,3.93,19.34,5.52,29.08
		c1.45,8.88,2.53,17.82,3.69,26.74c0.55,4.23,0.88,8.5,1.31,12.75C221.9,316.39,221.49,316.64,221.09,316.89z M197.29,262.95
		c0.59-0.36,1.18-0.73,1.78-1.09c-0.22-1.19-0.29-2.44-0.69-3.57c-2.12-6-3.56-12.42-6.69-17.86c-4.39-7.61-10-14.52-15.23-21.63
		c-1.77-2.4-3.3-1.65-4.46,0.84c-1.63,3.53-3.2,7.12-5.2,10.45c-1.57,2.61-0.54,4.01,1.36,5.62c6.66,5.62,13.39,11.18,19.82,17.05
		C191.36,255.84,194.2,259.53,197.29,262.95z"/>
	<path class="st0" d="M519.98,178.77c-10.28,12.62-15.33,26.37-12.63,43.76c-15.63-4.92-30.22-8.4-45.81,0.66
		c0.43-17.5-2.34-32.28-13.78-44.5c4.11-1.83,7.45-3.92,11.1-4.82c10.35-2.54,15.52-10.92,21.53-18.33
		c3.28-4.05,4.22-4.28,7.39-0.19c3.3,4.25,5.99,9.28,10.09,12.53c4.39,3.48,10.09,5.31,15.24,7.82
		C515.04,176.64,517.04,177.46,519.98,178.77z M495.2,186.43c-2.9-2.41-5.95-5.11-9.21-7.53c-0.89-0.66-2.87-1.05-3.58-0.52
		c-3.53,2.59-6.81,5.52-9.8,8.02c1.52,4.58,3.15,9.52,4.81,14.54c3.82,0,7.71,0.2,11.55-0.12c1.11-0.09,2.68-1.49,3.05-2.61
		C493.36,194.14,494.28,189.93,495.2,186.43z"/>
	<path class="st0" d="M137.6,221.91c-14.95-5.46-29.42-6.71-45.14,1.2c0.81-17.43-1.92-32.17-13.7-44.28
		c4.16-1.86,7.28-3.78,10.68-4.69c10.49-2.78,16.28-10.86,22.06-18.95c2.17-3.04,3.97-4.03,6.58-0.63c1.93,2.51,4.18,4.79,6.02,7.37
		c3.3,4.64,6.73,8.79,12.63,10.54c4.58,1.36,8.85,3.76,14.2,6.11C141.28,191.01,135.74,204.91,137.6,221.91z M103.6,186.43
		c1.58,4.48,3.31,9.4,5.18,14.69c1.88-0.35,4.2-1.12,6.51-1.1c2.44,0.02,4.87,0.78,6.76,1.12c1.6-5.47,3.02-10.35,4.3-14.74
		c-2.95-2.42-6.03-5.15-9.36-7.51c-0.91-0.65-3.01-0.75-3.89-0.13C109.76,181.12,106.7,183.87,103.6,186.43z"/>
	<path class="st0" d="M373.86,174.68c3.88,3.39,7.82,6.82,11.91,10.39c-13.31,16.51-23.43,34.42-29.73,54.38
		c-4.13,13.1-7.48,26.36-7.58,40.23c-0.1,13.26-0.42,26.52-0.27,39.78c0.04,4.02-1.36,5.11-5.03,4.87
		c-3.53-0.23-7.08-0.05-10.41-0.05C327.78,269.25,337.11,218.3,373.86,174.68z"/>
	<path class="st0" d="M251.25,324.28c3.2-50.96-3.58-98.98-38.25-139.29c4.47-3.71,8.46-7.02,13.48-11.19
		c7.63,12.57,15.47,24.24,22.04,36.59c8.65,16.28,13.83,33.8,16.52,52.13c2.83,19.29,2.76,38.66,2.84,58.05
		c0.01,2.68-0.9,3.83-3.66,3.74C260.22,324.18,256.21,324.28,251.25,324.28z"/>
	<path class="st0" d="M292.26,220.56c5.24,0,10.19,0,15.57,0c0,1.42,0,2.66,0,3.91c0,31.39-0.09,62.78,0.1,94.16
		c0.03,4.52-1.23,6.18-5.74,5.71c-3.18-0.33-6.42-0.06-9.92-0.06C292.26,289.66,292.26,255.29,292.26,220.56z"/>
	<path class="st0" d="M516.52,300.08c-5.27,0-10.53,0-15.92,0c0-5.58,0-10.64,0-15.83c5.5-0.3,10.73-0.59,15.95-0.88
		C516.54,288.94,516.53,294.51,516.52,300.08z"/>
	<path class="st0" d="M492.24,83.52c-5.29,0-10.58,0-16.22,0c0-5.13,0-10.15,0-16.17c5.34,0.24,10.8,0.49,16.26,0.74
		c0,0-0.17-0.22-0.17-0.22C492.15,73.09,492.19,78.31,492.24,83.52z"/>
	<path class="st0" d="M67.94,316.66c-0.26-5.41-0.52-10.82-0.79-16.46c5.65,0,10.73,0,16.1,0c0,5.6,0,11.04,0,16.48l0.16-0.22
		c-5.22,0-10.44-0.01-15.66-0.01L67.94,316.66z"/>
	<path class="st0" d="M516.38,299.93c5.22,0,10.43,0,15.65,0c0,5.4,0,10.79,0,16.38c-5.26,0-10.19,0-15.65,0
		C516.38,310.79,516.38,305.36,516.38,299.93z"/>
	<path class="st0" d="M67.99,331.95c-5.44,0-10.87,0-16.48,0c0-5.37,0-10.45,0-16.11c5.63,0.28,11.03,0.55,16.44,0.82
		c0,0-0.19-0.21-0.19-0.21c0,5.22,0.01,10.44,0.01,15.66L67.99,331.95z"/>
	<path class="st0" d="M67.99,83.36c-5.44,0-10.87,0-16.48,0c0-5.37,0-10.45,0-16.11c5.63,0.28,11.03,0.55,16.44,0.82
		c0,0-0.19-0.21-0.19-0.21c0,5.22,0.01,10.44,0.01,15.66C67.77,83.52,67.99,83.36,67.99,83.36z"/>
	<path class="st0" d="M508.33,67.83c5.14,0,10.28,0,15.65,0c0,4.95,0,10.04,0,15.69c-5.47,0-10.91,0-16.34,0
		C507.87,78.29,508.1,73.06,508.33,67.83z"/>
	<path class="st0" d="M291.55,188.51c5.45,0,10.58,0,15.91,0c0,5.1,0,10.02,0,15.36c-1.06,0-1.98,0-2.9,0
		C289.92,203.92,289.92,203.92,291.55,188.51z"/>
	<path class="st0" d="M83.27,83.38c0,4.98,0,9.97,0,15.28c-5.2,0-10.4,0-16.13,0c0.29-5.18,0.57-10.24,0.85-15.3
		c0,0-0.22,0.16-0.22,0.16c5.22,0,10.43,0,15.65,0L83.27,83.38z"/>
	<path class="st0" d="M492.1,83.38c5.22,0,10.45,0,15.67,0c0,4.97,0,9.95,0,15.26c-5.15,0-10.16,0-15.67,0
		C492.1,93.56,492.1,88.47,492.1,83.38z"/>
	<path class="st0" d="M83.25,68.09c5.06-0.28,10.13-0.56,15.42-0.85c0,5.62,0,10.7,0,16.15c-5.2,0-10.3,0-15.4,0
		c0,0,0.14,0.14,0.14,0.14c0-5.22,0-10.43,0-15.65L83.25,68.09z"/>
	<path class="st0" d="M83.25,316.68c5.06-0.28,10.12-0.56,15.42-0.85c0,5.62,0,10.7,0,16.14c-5.2,0-10.3,0-15.39,0l0.14,0.14
		c0-5.22,0-10.43,0-15.65L83.25,316.68z"/>
	<path class="st0" d="M83.28,331.97c0,4.98,0,9.97,0,15.28c-5.2,0-10.4,0-16.14,0c0.29-5.18,0.57-10.24,0.85-15.3
		c0,0-0.22,0.16-0.22,0.16c5.22,0,10.43,0,15.65,0L83.28,331.97z"/>
	<path class="st0" d="M532.53,283.53c-5.38,0-10.77,0-16.15,0c0-4.97,0-9.93,0-15.25c5.28,0,10.45,0,16.15,0
		C532.53,273.38,532.53,278.46,532.53,283.53z"/>
	<path class="st0" d="M387.54,148.65c5.51,0,10.64,0,16.02,0c0,4.73,0,9.33,0,14.18c-5.28,0-10.52,0-16.02,0
		C387.54,158.21,387.54,153.61,387.54,148.65z"/>
	<path class="st0" d="M170.97,116.63c5.58,0,10.72,0,16.07,0c0,4.76,0,9.36,0,14.18c-5.35,0-10.6,0-16.07,0
		C170.97,126.11,170.97,121.51,170.97,116.63z"/>
	<path class="st0" d="M427.76,130.88c-5.27,0-10.4,0-15.86,0c0-4.56,0-9.16,0-14.09c5.03,0,10.28,0,15.86,0
		C427.76,121.18,427.76,125.78,427.76,130.88z"/>
	<path class="st0" d="M211.37,148.73c0,4.94,0,9.43,0,14.13c-5.41,0-10.66,0-16.12,0c0-4.71,0-9.31,0-14.13
		C200.6,148.73,205.85,148.73,211.37,148.73z"/>
	<path class="st0" d="M147.63,547.62c0.26,0.27,0.52,0.54,0.78,0.82C148.15,548.16,147.89,547.89,147.63,547.62z"/>
	<path class="st0" d="M451.38,548.43c0.26-0.27,0.52-0.54,0.78-0.81C451.9,547.89,451.64,548.16,451.38,548.43z"/>
	<path class="st0" d="M291.86,385.54c-0.6-0.05-1.19-0.11-1.79-0.16c0.47-0.6,0.95-1.2,1.42-1.8
		C291.61,384.23,291.73,384.89,291.86,385.54z"/>
	<path class="st0" d="M308.6,384.51l-0.31,0.2l-0.34-0.14c0.01-0.26,0.02-0.51,0.02-0.77C308.18,384.04,308.39,384.27,308.6,384.51z
		"/>
	<path class="st0" d="M269.77,388.15c0.28-0.26,0.56-0.51,0.84-0.77C270.33,387.64,270.05,387.89,269.77,388.15z"/>
	<path class="st0" d="M328.22,387.38c0.28,0.26,0.56,0.51,0.83,0.77C328.77,387.89,328.5,387.63,328.22,387.38z"/>
	<path class="st0" d="M454.25,388.1c-0.1-0.26-0.07-0.5,0.07-0.74c0.2,0.23,0.41,0.45,0.61,0.68
		C454.71,388.05,454.48,388.07,454.25,388.1z"/>
	<path class="st0" d="M226.97,500.73c0,5.17,0,10.26,0,15.58c-15.79,0-31.36,0-47.21,0c0-5.09,0-10.17,0-15.58
		C195.44,500.73,211.17,500.73,226.97,500.73z"/>
	<path class="st0" d="M179.65,483.53c0-4.84,0-9.68,0-14.86c15.79,0,31.54,0,47.26,0c0,4.95,0,9.91,0,14.87
		c-0.27,0.26-0.54,0.52-0.81,0.79c-15.21,0-30.43,0-45.64,0C180.18,484.06,179.92,483.8,179.65,483.53z"/>
	<path class="st0" d="M258.92,501.38c0,5.17,0,9.98,0,14.97c-5.11,0-10.03,0-15.15,0c0-5.11,0-10.03,0-14.97
		C249.01,501.38,254.04,501.38,258.92,501.38z"/>
	<path class="st0" d="M179.65,483.53c0.27,0.26,0.54,0.53,0.8,0.79C180.18,484.06,179.92,483.8,179.65,483.53z"/>
	<path class="st0" d="M226.1,484.32c0.27-0.26,0.54-0.52,0.81-0.79C226.64,483.8,226.37,484.06,226.1,484.32z"/>
</g>
</svg>
