<?xml version="1.0" encoding="utf-8"?>
<!-- Generator: Adobe Illustrator 26.0.1, SVG Export Plug-In . SVG Version: 6.00 Build 0)  -->
<svg version="1.1" baseProfile="basic" id="Layer_1"
	 xmlns="http://www.w3.org/2000/svg" xmlns:xlink="http://www.w3.org/1999/xlink" x="0px" y="0px" viewBox="0 0 595.44 50.41"
	 xml:space="preserve">
<style type="text/css">
	.st0{fill:#ACD04A;}
	.st1{fill:#639941;}
	.st2{fill:#FFFFFF;}
	.st3{fill:#98CA51;}
	.st4{fill:#576D08;}
</style>
<g>
	<g id="Bottom1_00000098910350351577301710000004592543106263370652_" transform="translate(0 -791.272)">
		<path id="Path_22727_00000038371003932596351710000015727257454670357167_" class="st0" d="M273.57,822.9l43.57,18.78h278.29
			V822.9H273.57z"/>
		<path id="Path_22728_00000107552619629079349710000006329724088089446327_" class="st1" d="M321.87,841.68L278.3,822.9H0v18.78
			L321.87,841.68L321.87,841.68z"/>
	</g>
	<polygon class="st0" points="423.92,18.37 420.81,10.69 417.59,10.69 423.81,24.94 430.03,10.69 426.84,10.69 	"/>
	<rect x="432.38" y="10.69" class="st0" width="2.68" height="13.62"/>
	<path class="st0" d="M441.39,13.35c0.33-0.23,0.79-0.35,1.37-0.35c0.47,0,0.97,0.09,1.51,0.28c0.54,0.19,1.07,0.42,1.58,0.7
		l1.02-2.06c-0.54-0.36-1.16-0.67-1.84-0.92c-0.69-0.26-1.58-0.39-2.67-0.39c-0.84,0.04-1.58,0.23-2.22,0.56
		c-0.64,0.34-1.14,0.8-1.49,1.38c-0.35,0.58-0.53,1.27-0.53,2.05c0,0.65,0.12,1.21,0.36,1.66c0.24,0.45,0.56,0.83,0.94,1.13
		c0.39,0.3,0.8,0.56,1.25,0.77c0.44,0.21,0.88,0.39,1.3,0.55c0.36,0.14,0.69,0.3,0.99,0.48c0.3,0.18,0.54,0.39,0.72,0.61
		c0.18,0.22,0.27,0.47,0.27,0.74c0,0.39-0.11,0.7-0.32,0.92c-0.22,0.22-0.49,0.38-0.81,0.47c-0.33,0.09-0.65,0.14-0.97,0.14
		c-0.32,0-0.67-0.05-1.06-0.15c-0.38-0.1-0.76-0.24-1.14-0.42c-0.38-0.18-0.73-0.39-1.05-0.62L437.41,23
		c0.48,0.33,0.98,0.61,1.5,0.82c0.52,0.22,1.05,0.38,1.58,0.48c0.54,0.1,1.06,0.16,1.58,0.16c1.01,0,1.86-0.18,2.55-0.55
		s1.22-0.84,1.57-1.43c0.36-0.59,0.54-1.23,0.54-1.92c0-0.65-0.09-1.21-0.28-1.66c-0.18-0.45-0.43-0.83-0.74-1.13
		c-0.31-0.3-0.66-0.55-1.05-0.76c-0.39-0.2-0.78-0.38-1.18-0.53c-0.43-0.16-0.85-0.34-1.25-0.54c-0.4-0.2-0.73-0.42-0.98-0.68
		c-0.25-0.25-0.38-0.54-0.38-0.86C440.89,13.94,441.06,13.59,441.39,13.35z"/>
	<polygon class="st0" points="458.14,16.19 452.05,16.19 452.05,10.69 449.37,10.69 449.37,24.31 452.05,24.31 452.05,18.78 
		458.14,18.78 458.14,24.31 460.83,24.31 460.83,10.69 458.14,10.69 	"/>
	<polygon class="st0" points="480.93,10.78 478.04,10.78 475.74,18.35 472.67,10.78 470.01,10.78 471.09,13.47 469,18.66 
		466.33,10.78 463.18,10.78 468.66,24.94 472.44,16.83 475.67,24.9 	"/>
	<path class="st0" d="M486.04,10.15l-6.14,14.16h2.65l1.11-2.67h4.52l1.05,2.67h3.11l-6.15-14.16H486.04z M484.59,19.39l1.38-3.32
		l1.31,3.32H484.59z"/>
</g>
<polygon class="st0" points="499.4,13.18 502.59,13.18 502.59,24.21 505.27,24.21 505.27,13.18 508.58,13.18 508.58,10.59 
	499.4,10.59 "/>
<path class="st0" d="M519.57,18.36c0.38-0.46,0.65-0.96,0.81-1.52c0.17-0.56,0.25-1.11,0.25-1.67c0-0.7-0.12-1.34-0.35-1.9
	c-0.23-0.56-0.58-1.04-1.03-1.44s-1.01-0.71-1.68-0.93c-0.67-0.22-1.43-0.32-2.28-0.32h-4.13v13.62h2.68v-4.33h1.79l2.88,4.33h3.13
	l-3.19-4.97C518.9,18.99,519.28,18.71,519.57,18.36z M513.86,13.18h1.92c0.47,0,0.84,0.08,1.12,0.24c0.28,0.16,0.48,0.36,0.62,0.59
	c0.14,0.23,0.23,0.47,0.27,0.69c0.04,0.23,0.07,0.42,0.07,0.56c0,0.2-0.03,0.41-0.1,0.64c-0.07,0.23-0.18,0.45-0.33,0.66
	c-0.15,0.21-0.37,0.38-0.64,0.52c-0.27,0.14-0.61,0.2-1.02,0.2h-1.91V13.18z"/>
<path class="st0" d="M528.48,10.05l-6.14,14.16h2.65l1.11-2.67h4.52l1.05,2.67h3.11l-6.15-14.16H528.48z M527.03,19.29l1.38-3.32
	l1.31,3.32H527.03z"/>
<path class="st0" d="M546.65,12.83c-0.59-0.68-1.36-1.22-2.32-1.63c-0.96-0.41-2.13-0.61-3.5-0.61h-4.07v13.62h4.74
	c0.92,0,1.8-0.15,2.63-0.45c0.83-0.3,1.55-0.74,2.18-1.31c0.63-0.57,1.13-1.26,1.49-2.07c0.36-0.81,0.55-1.72,0.55-2.73
	c0-0.85-0.14-1.7-0.41-2.54C547.66,14.26,547.23,13.51,546.65,12.83z M545.24,19.26c-0.22,0.53-0.53,0.96-0.93,1.31
	c-0.4,0.35-0.88,0.61-1.43,0.79c-0.56,0.18-1.17,0.27-1.85,0.27h-1.59v-8.46h2.18c0.31,0,0.69,0.06,1.13,0.18
	c0.44,0.12,0.88,0.33,1.3,0.64c0.43,0.31,0.78,0.74,1.07,1.31s0.44,1.29,0.44,2.17C545.57,18.13,545.46,18.74,545.24,19.26z"/>
<polygon class="st0" points="553.71,18.68 559.56,18.68 559.56,16.09 553.71,16.09 553.71,13.18 560.32,13.18 560.32,10.59 
	551.03,10.59 551.03,24.21 560.58,24.21 560.58,21.62 553.71,21.62 "/>
<path class="st0" d="M571.75,18.36c0.38-0.46,0.65-0.96,0.81-1.52c0.17-0.56,0.25-1.11,0.25-1.67c0-0.7-0.12-1.34-0.35-1.9
	c-0.23-0.56-0.58-1.04-1.03-1.44s-1.01-0.71-1.68-0.93c-0.67-0.22-1.43-0.32-2.28-0.32h-4.13v13.62h2.68v-4.33h1.79l2.88,4.33h3.13
	l-3.19-4.97C571.08,18.99,571.46,18.71,571.75,18.36z M566.04,13.18h1.92c0.47,0,0.84,0.08,1.12,0.24c0.28,0.16,0.48,0.36,0.62,0.59
	c0.14,0.23,0.23,0.47,0.27,0.69c0.04,0.23,0.07,0.42,0.07,0.56c0,0.2-0.03,0.41-0.1,0.64c-0.07,0.23-0.18,0.45-0.33,0.66
	c-0.15,0.21-0.37,0.38-0.64,0.52c-0.27,0.14-0.61,0.2-1.02,0.2h-1.91V13.18z"/>
<path class="st0" d="M583.2,17.67c-0.31-0.3-0.66-0.55-1.05-0.76c-0.39-0.2-0.78-0.38-1.18-0.53c-0.43-0.16-0.85-0.34-1.25-0.54
	c-0.4-0.2-0.73-0.42-0.98-0.68c-0.25-0.25-0.38-0.54-0.38-0.86c0-0.47,0.17-0.82,0.5-1.06c0.33-0.23,0.79-0.35,1.37-0.35
	c0.47,0,0.97,0.09,1.51,0.28c0.54,0.19,1.07,0.42,1.58,0.7l1.02-2.06c-0.54-0.36-1.16-0.67-1.84-0.92
	c-0.69-0.26-1.58-0.39-2.67-0.39c-0.84,0.04-1.58,0.23-2.22,0.56c-0.64,0.34-1.14,0.8-1.49,1.38c-0.35,0.58-0.53,1.27-0.53,2.05
	c0,0.65,0.12,1.21,0.36,1.66c0.24,0.45,0.56,0.83,0.94,1.13c0.39,0.3,0.8,0.56,1.25,0.77c0.44,0.21,0.88,0.39,1.3,0.55
	c0.36,0.14,0.69,0.3,0.99,0.48c0.3,0.18,0.54,0.39,0.72,0.61c0.18,0.22,0.27,0.47,0.27,0.74c0,0.39-0.11,0.7-0.32,0.92
	c-0.22,0.22-0.49,0.38-0.81,0.47c-0.33,0.09-0.65,0.14-0.97,0.14c-0.32,0-0.67-0.05-1.06-0.15c-0.38-0.1-0.76-0.24-1.14-0.42
	c-0.38-0.18-0.73-0.39-1.05-0.62l-1.18,2.09c0.48,0.33,0.98,0.61,1.5,0.82c0.52,0.22,1.05,0.38,1.58,0.48
	c0.54,0.1,1.06,0.16,1.58,0.16c1.01,0,1.86-0.18,2.55-0.55c0.69-0.36,1.22-0.84,1.57-1.43c0.36-0.59,0.54-1.23,0.54-1.92
	c0-0.65-0.09-1.21-0.28-1.66C583.75,18.35,583.51,17.97,583.2,17.67z"/>
</svg>
