<?xml version="1.0" encoding="utf-8"?>
<!-- Generator: Adobe Illustrator 26.0.1, SVG Export Plug-In . SVG Version: 6.00 Build 0)  -->
<svg version="1.1" baseProfile="basic" id="Layer_1"
	 xmlns="http://www.w3.org/2000/svg" xmlns:xlink="http://www.w3.org/1999/xlink" x="0px" y="0px" viewBox="0 0 595.4 112.6"
	 xml:space="preserve">
<style type="text/css">
	.st0{fill:#ACD04A;}
	.st1{fill:#639941;}
	.st2{fill:#FFFFFF;}
	.st3{fill:#98CA51;}
	.st4{fill:#576D08;}
</style>
<g>
	<g>
		<path class="st0" d="M484.31,13.2v19.4h-4.4V13.2H484.31z"/>
		<path class="st0" d="M488.11,32.6V13.2h5.12l4.02,7.11c1.15,2.04,2.31,4.46,3.17,6.65h0.09c-0.29-2.56-0.37-5.18-0.37-8.09V13.2
			h4.03v19.4h-4.6l-4.15-7.48c-1.15-2.07-2.42-4.58-3.37-6.85l-0.09,0.03c0.11,2.56,0.17,5.3,0.17,8.46v5.84L488.11,32.6
			L488.11,32.6L488.11,32.6z"/>
		<path class="st0" d="M512.55,32.6l-6.22-19.4h4.81l2.36,8.2c0.66,2.3,1.27,4.52,1.73,6.94h0.09c0.49-2.33,1.09-4.63,1.76-6.85
			l2.47-8.29h4.66l-6.53,19.4H512.55z"/>
		<path class="st0" d="M543.8,22.7c0,6.36-3.85,10.22-9.52,10.22c-5.76,0-9.12-4.35-9.12-9.87c0-5.81,3.71-10.16,9.44-10.16
			C540.55,12.89,543.8,17.35,543.8,22.7z M529.79,22.96c0,3.8,1.78,6.48,4.72,6.48c2.96,0,4.66-2.82,4.66-6.59
			c0-3.48-1.67-6.48-4.69-6.48C531.52,16.37,529.79,19.19,529.79,22.96z"/>
		<path class="st0" d="M551.09,13.2v19.4h-4.4V13.2H551.09z"/>
		<path class="st0" d="M569.13,32.05c-0.81,0.4-2.62,0.83-4.98,0.83c-6.71,0-10.16-4.17-10.16-9.7c0-6.62,4.72-10.3,10.59-10.3
			c2.27,0,4,0.46,4.78,0.86l-0.9,3.48c-0.89-0.37-2.13-0.72-3.68-0.72c-3.48,0-6.19,2.1-6.19,6.42c0,3.89,2.31,6.33,6.22,6.33
			c1.32,0,2.79-0.29,3.65-0.63L569.13,32.05z"/>
		<path class="st0" d="M583.55,24.4h-7.14V29h7.97v3.6h-12.37V13.2h11.97v3.6h-7.57v4.03h7.14L583.55,24.4L583.55,24.4z"/>
	</g>
	<path class="st0" d="M351.96,39.6v0.29c-17.63,0.24-31.86,16.41-31.86,36.35c0,19.93,14.23,36.11,31.86,36.35v0.01h0.39h129.49
		H595.4v-73H351.96z"/>
	<g>
		<polygon class="st2" points="354.4,77.26 350.01,66.43 345.47,66.43 354.24,86.53 363.01,66.43 358.52,66.43 		"/>
		<rect x="366.33" y="66.43" class="st2" width="3.78" height="19.21"/>
		<path class="st2" d="M379.04,70.19c0.47-0.33,1.11-0.5,1.93-0.5c0.66,0,1.37,0.13,2.13,0.39c0.76,0.26,1.5,0.59,2.23,0.99
			l1.44-2.9c-0.77-0.5-1.63-0.94-2.6-1.3c-0.97-0.37-2.22-0.55-3.77-0.55c-1.18,0.05-2.23,0.32-3.13,0.8
			c-0.9,0.48-1.61,1.13-2.1,1.94c-0.5,0.82-0.74,1.78-0.74,2.9c0,0.92,0.17,1.7,0.51,2.34c0.34,0.63,0.78,1.17,1.33,1.59
			c0.55,0.43,1.13,0.79,1.76,1.08c0.63,0.3,1.24,0.56,1.83,0.78c0.5,0.19,0.97,0.42,1.4,0.68c0.43,0.26,0.77,0.55,1.02,0.86
			c0.25,0.31,0.38,0.66,0.38,1.05c0,0.56-0.15,0.99-0.46,1.3c-0.3,0.31-0.69,0.53-1.15,0.67c-0.46,0.13-0.92,0.2-1.37,0.2
			c-0.45,0-0.95-0.07-1.49-0.21c-0.54-0.14-1.07-0.34-1.61-0.59c-0.53-0.25-1.02-0.54-1.48-0.87l-1.67,2.95
			c0.68,0.47,1.38,0.86,2.11,1.16c0.73,0.3,1.47,0.53,2.23,0.68c0.76,0.15,1.5,0.22,2.23,0.22c1.43,0,2.63-0.26,3.6-0.77
			c0.97-0.51,1.71-1.19,2.22-2.02c0.5-0.84,0.76-1.74,0.76-2.71c0-0.92-0.13-1.7-0.39-2.34c-0.26-0.63-0.61-1.17-1.04-1.59
			c-0.43-0.43-0.93-0.78-1.47-1.07c-0.55-0.29-1.1-0.54-1.66-0.74c-0.61-0.23-1.2-0.48-1.76-0.76c-0.57-0.28-1.03-0.6-1.38-0.95
			c-0.36-0.36-0.54-0.76-0.54-1.21C378.33,71.01,378.57,70.52,379.04,70.19z"/>
		<polygon class="st2" points="402.66,74.18 394.07,74.18 394.07,66.43 390.29,66.43 390.29,85.64 394.07,85.64 394.07,77.84 
			402.66,77.84 402.66,85.64 406.44,85.64 406.44,66.43 402.66,66.43 		"/>
		<polygon class="st2" points="434.79,66.56 430.72,66.56 427.47,77.23 423.15,66.56 419.39,66.56 420.91,70.35 417.97,77.67 
			414.2,66.56 409.76,66.56 417.49,86.53 422.81,75.09 427.38,86.48 		"/>
		<path class="st2" d="M442,65.67l-8.67,19.97h3.73l1.57-3.76H445l1.48,3.76h4.38l-8.67-19.97H442z M439.95,78.7l1.95-4.68
			l1.85,4.68H439.95z"/>
		<polygon class="st2" points="460.84,70.08 465.33,70.08 465.33,85.64 469.12,85.64 469.12,70.08 473.79,70.08 473.79,66.43 
			460.84,66.43 		"/>
		<path class="st2" d="M489.28,77.39c0.53-0.64,0.91-1.36,1.15-2.14c0.24-0.78,0.35-1.57,0.35-2.35c0-0.99-0.17-1.88-0.5-2.68
			c-0.33-0.79-0.81-1.47-1.45-2.04c-0.63-0.57-1.42-1-2.36-1.31c-0.94-0.3-2.01-0.46-3.21-0.46h-5.82v19.21h3.78v-6.11h2.52
			l4.06,6.11h4.41l-4.49-7.01C488.33,78.28,488.87,77.89,489.28,77.39z M481.23,70.08h2.71c0.66,0,1.19,0.11,1.58,0.34
			c0.39,0.23,0.68,0.51,0.87,0.84c0.19,0.33,0.32,0.66,0.38,0.98c0.06,0.32,0.09,0.59,0.09,0.8c0,0.28-0.05,0.58-0.14,0.9
			c-0.09,0.32-0.25,0.63-0.47,0.93c-0.22,0.3-0.52,0.54-0.9,0.73c-0.38,0.19-0.86,0.29-1.44,0.29h-2.69V70.08z"/>
		<path class="st2" d="M501.85,65.67l-8.67,19.97h3.73l1.57-3.76h6.38l1.48,3.76h4.38l-8.67-19.97H501.85z M499.81,78.7l1.95-4.68
			l1.85,4.68H499.81z"/>
		<path class="st2" d="M527.47,69.59c-0.83-0.96-1.92-1.72-3.28-2.3c-1.36-0.57-3-0.86-4.93-0.86h-5.74v19.21h6.68
			c1.3,0,2.54-0.21,3.71-0.64c1.17-0.43,2.19-1.04,3.08-1.85c0.89-0.81,1.59-1.78,2.1-2.92c0.51-1.14,0.77-2.42,0.77-3.85
			c0-1.2-0.19-2.39-0.57-3.58C528.9,71.61,528.29,70.55,527.47,69.59z M525.48,78.66c-0.3,0.74-0.74,1.35-1.31,1.84
			c-0.57,0.49-1.24,0.86-2.02,1.11c-0.78,0.25-1.65,0.38-2.61,0.38h-2.25V70.06h3.08c0.43,0,0.97,0.08,1.59,0.25
			c0.63,0.17,1.24,0.46,1.84,0.9c0.6,0.43,1.1,1.05,1.51,1.84s0.61,1.81,0.61,3.07C525.94,77.07,525.79,77.92,525.48,78.66z"/>
		<polygon class="st2" points="537.42,77.84 545.67,77.84 545.67,74.18 537.42,74.18 537.42,70.08 546.74,70.08 546.74,66.43 
			533.64,66.43 533.64,85.64 547.11,85.64 547.11,81.99 537.42,81.99 		"/>
		<path class="st2" d="M562.86,77.39c0.53-0.64,0.91-1.36,1.15-2.14c0.24-0.78,0.35-1.57,0.35-2.35c0-0.99-0.17-1.88-0.5-2.68
			c-0.33-0.79-0.81-1.47-1.45-2.04c-0.63-0.57-1.42-1-2.36-1.31c-0.94-0.3-2.01-0.46-3.21-0.46h-5.82v19.21h3.78v-6.11h2.52
			l4.06,6.11h4.41l-4.49-7.01C561.91,78.28,562.45,77.89,562.86,77.39z M554.81,70.08h2.71c0.66,0,1.19,0.11,1.58,0.34
			c0.39,0.23,0.68,0.51,0.87,0.84c0.19,0.33,0.32,0.66,0.38,0.98c0.06,0.32,0.09,0.59,0.09,0.8c0,0.28-0.05,0.58-0.14,0.9
			c-0.09,0.32-0.25,0.63-0.47,0.93c-0.22,0.3-0.52,0.54-0.9,0.73c-0.38,0.19-0.86,0.29-1.44,0.29h-2.69V70.08z"/>
		<path class="st2" d="M579.01,76.41c-0.43-0.43-0.93-0.78-1.47-1.07c-0.55-0.29-1.1-0.54-1.66-0.74c-0.61-0.23-1.2-0.48-1.76-0.76
			c-0.57-0.28-1.03-0.6-1.38-0.95c-0.36-0.36-0.54-0.76-0.54-1.21c0-0.66,0.24-1.16,0.71-1.49c0.47-0.33,1.11-0.5,1.93-0.5
			c0.66,0,1.37,0.13,2.13,0.39c0.76,0.26,1.5,0.59,2.23,0.99l1.44-2.9c-0.77-0.5-1.63-0.94-2.6-1.3c-0.97-0.37-2.22-0.55-3.77-0.55
			c-1.18,0.05-2.23,0.32-3.13,0.8s-1.6,1.13-2.1,1.94c-0.5,0.82-0.74,1.78-0.74,2.9c0,0.92,0.17,1.7,0.51,2.34
			c0.34,0.63,0.78,1.17,1.33,1.59c0.55,0.43,1.13,0.79,1.76,1.08c0.63,0.3,1.24,0.56,1.83,0.78c0.5,0.19,0.97,0.42,1.4,0.68
			c0.43,0.26,0.77,0.55,1.02,0.86c0.25,0.31,0.38,0.66,0.38,1.05c0,0.56-0.15,0.99-0.46,1.3c-0.3,0.31-0.69,0.53-1.15,0.67
			c-0.46,0.13-0.92,0.2-1.37,0.2c-0.45,0-0.95-0.07-1.49-0.21c-0.54-0.14-1.07-0.34-1.6-0.59c-0.53-0.25-1.02-0.54-1.48-0.87
			l-1.67,2.95c0.68,0.47,1.38,0.86,2.11,1.16c0.73,0.3,1.47,0.53,2.23,0.68c0.76,0.15,1.5,0.22,2.23,0.22c1.43,0,2.63-0.26,3.6-0.77
			c0.97-0.51,1.71-1.19,2.22-2.02c0.5-0.84,0.76-1.74,0.76-2.71c0-0.92-0.13-1.7-0.39-2.34C579.79,77.37,579.44,76.84,579.01,76.41z
			"/>
	</g>
	<g>
		<polygon class="st0" points="25.4,50.76 26.3,87.76 33.8,87.76 54.6,50.76 47.2,50.76 33.2,76.36 32.8,50.76 		"/>
		<polygon class="st0" points="60.9,57.36 50.3,57.36 53.5,50.76 79.7,50.76 78,57.36 67.8,57.36 60,87.76 53,87.76 		"/>
		<g>
			<path class="st2" d="M18.8,64.96c0,0-5,14.3,11.9,16.3c0,0,10.5,1.5,21.5-3.8c1-0.4,17.6-6.7,28.2-20.2c1.2-1.6,5.4-6.3,6.4-14.1
				c0,0,0.5,9.2-11.2,20.8c-0.9,1-16.1,16.5-36,19.7c-8.3,0.8-15.8,1.7-20.9-5.9C18.1,76.36,16,72.66,18.8,64.96z"/>
		</g>
		<path class="st2" d="M23.1,83.66c0,0,7.4,5.9,23.3-0.5c2.4-0.9,12.3-4.3,25.3-15.6c2.2-2,12.4-12.2,14.4-21.9
			c0,0-1.9,11.1-15,23.9c0,0-9.6,11-25.1,16.7C44.1,87.06,31.4,91.86,23.1,83.66z"/>
		<g>
			<path class="st3" d="M18.8,65.76c0,0-5,14.3,11.9,16.3c0,0,10.5,1.5,21.5-3.8c1-0.4,17.6-6.7,28.2-20.2c1.2-1.6,5.4-6.3,6.4-14.1
				c0,0,0.5,9.2-11.2,20.8c-0.9,1-16.1,16.5-36,19.7c-8.3,0.8-15.8,1.7-20.9-5.9C18.1,77.16,16,73.46,18.8,65.76z"/>
		</g>
		<path class="st4" d="M24.7,85.06c0,0,7.4,5.9,23.3-0.5c2.4-0.9,12.3-4.3,25.3-15.6c2.2-2,12.4-12.2,14.4-21.9
			c0,0-1.9,11.1-15,23.9c0,0-9.6,11-25.1,16.7C45.6,88.36,33,93.26,24.7,85.06z"/>
	</g>
</g>
</svg>
